<svg version="1.1" id="Layer_1" xmlns="http://www.w3.org/2000/svg" xmlns:xlink="http://www.w3.org/1999/xlink" x="0px" y="0px"
	 width="100%" viewBox="0 0 2048 2048" enable-background="new 0 0 2048 2048" xml:space="preserve">
<path fill="#FFFFFF" opacity="1.000000" stroke="none" 
	d="
M882.000000,2049.000000 
	C588.000000,2049.000000 294.500000,2049.000000 1.000000,2049.000000 
	C1.000000,1366.333374 1.000000,683.666687 1.000000,1.000000 
	C683.666687,1.000000 1366.333374,1.000000 2049.000000,1.000000 
	C2049.000000,683.666687 2049.000000,1366.333374 2049.000000,2049.000000 
	C1660.166626,2049.000000 1271.333374,2049.000000 882.000000,2049.000000 
M1081.345947,1081.328613 
	C1081.552490,1081.572632 1081.791382,1081.779175 1082.189575,1082.749512 
	C1084.356567,1083.151733 1086.523315,1083.905640 1088.690430,1083.906128 
	C1312.458008,1083.959961 1536.225586,1083.956909 1759.993164,1083.957275 
	C1800.314575,1083.957275 1840.636230,1083.987793 1880.957275,1083.860229 
	C1882.916138,1083.854004 1884.870728,1082.456299 1886.993286,1081.319702 
	C1886.993286,1081.319702 1887.271606,1081.003906 1887.956055,1080.849121 
	C1892.165771,1071.236938 1890.200806,1068.014526 1880.130371,1068.014648 
	C1615.937012,1068.018066 1351.743774,1068.020996 1087.550415,1068.026001 
	C1086.051392,1068.026001 1084.473633,1067.769409 1083.078613,1068.157349 
	C1081.989258,1068.460327 1080.307007,1069.575195 1080.303589,1070.335571 
	C1080.288086,1073.870850 1080.765137,1077.408081 1081.345947,1081.328613 
M650.118225,1391.606934 
	C722.551575,1375.428345 794.981995,1359.236450 867.419861,1343.077881 
	C897.793030,1336.302612 928.179626,1329.587646 958.564819,1322.866455 
	C971.397278,1320.027954 980.182495,1312.656982 983.455566,1299.762329 
	C984.583496,1295.318848 984.603333,1290.515503 984.605591,1285.876343 
	C984.651001,1193.722534 984.614319,1101.568726 984.606018,1009.414917 
	C984.602356,969.096252 984.668823,928.777527 984.620728,888.458923 
	C984.585571,858.965393 984.545776,829.470642 984.256226,799.978943 
	C984.082642,782.295166 970.912964,771.310730 953.684753,774.929321 
	C908.569519,784.405151 863.543335,794.305237 818.479248,804.025085 
	C744.290039,820.026978 670.101379,836.031494 595.907593,852.012207 
	C558.651855,860.036682 521.405945,868.109741 484.109497,875.941162 
	C474.348236,877.990845 466.290192,882.531372 462.258270,891.588318 
	C459.705811,897.321960 458.312408,904.062195 458.290802,910.357422 
	C458.014587,990.845337 458.035492,1071.334473 458.072021,1151.823242 
	C458.110077,1235.644775 458.248199,1319.466187 458.339417,1403.287720 
	C458.350220,1413.190063 458.340912,1423.092407 458.340912,1433.221069 
	C460.761414,1432.994019 461.939331,1433.005859 463.060730,1432.760132 
	C478.664398,1429.338867 494.256836,1425.866577 509.858856,1422.437866 
	C556.339539,1412.223022 602.823181,1402.021973 650.118225,1391.606934 
M187.926270,1225.495117 
	C185.613388,1242.265869 192.860092,1253.568848 206.434586,1263.314697 
	C237.144455,1285.362915 266.979218,1308.630005 297.178101,1331.390381 
	C298.934906,1332.714478 300.765930,1333.940186 303.164978,1335.638062 
	C303.164978,1331.200806 303.165894,1327.876343 303.164856,1324.551880 
	C303.112610,1158.231934 303.050171,991.912048 303.018799,825.592102 
	C303.014160,801.069031 314.793396,786.281799 338.826294,780.985657 
	C371.821991,773.714233 404.873077,766.694214 437.900116,759.564758 
	C522.172791,741.373291 606.445557,723.182190 690.717468,704.987305 
	C702.729736,702.393677 714.737549,699.779297 726.758301,697.172180 
	C726.758301,677.611511 727.399841,658.436462 726.567993,639.325500 
	C725.817993,622.095215 710.965149,611.776978 693.856201,615.376221 
	C658.837280,622.743347 623.823669,630.136902 588.826904,637.608582 
	C500.770203,656.408264 412.722260,675.248962 324.674530,694.090698 
	C287.566345,702.031555 250.441895,709.899475 213.378662,718.045410 
	C200.604141,720.853149 192.045822,728.831238 188.904083,741.653870 
	C187.737015,746.417053 187.854446,751.562866 187.854080,756.534180 
	C187.842865,912.521729 187.889496,1068.509277 187.926270,1225.495117 
M519.805603,850.251343 
	C520.630005,850.131165 521.464722,850.059204 522.277283,849.883911 
	C580.606201,837.303650 638.928101,824.690979 697.262146,812.134460 
	C748.611633,801.081360 799.971924,790.078857 851.338379,779.104736 
	C853.933228,778.550354 856.033020,778.247742 856.008606,774.676575 
	C855.878723,755.680542 856.176147,736.679688 855.878357,717.687439 
	C855.686157,705.434204 847.733337,695.736084 835.672180,694.012878 
	C829.853699,693.181580 823.531555,694.631226 817.618347,695.894531 
	C737.321960,713.049377 657.057068,730.351135 576.785095,747.620056 
	C500.084747,764.120544 423.382416,780.611450 346.687805,797.138306 
	C329.924500,800.750549 320.695496,813.021423 320.716980,827.285645 
	C320.973480,997.426208 320.966797,1167.567139 321.045319,1337.708008 
	C321.046112,1339.443726 321.265564,1341.179565 321.412109,1343.346680 
	C323.499878,1342.952271 324.943451,1342.721069 326.367981,1342.404419 
	C362.715515,1334.322998 399.037048,1326.120972 435.438019,1318.288086 
	C439.884552,1317.331177 440.981262,1315.739380 440.915039,1311.465820 
	C440.533508,1286.843384 440.248596,1262.216309 440.275635,1237.591187 
	C440.333954,1184.445190 440.701447,1131.299438 440.744965,1078.153442 
	C440.770325,1047.170776 440.354645,1016.187988 440.247040,985.204895 
	C440.151550,957.709412 440.051880,930.212280 440.244873,902.717957 
	C440.404266,880.005005 452.305389,865.267761 474.645691,860.032654 
	C489.366119,856.583069 504.210419,853.662048 519.805603,850.251343 
M1331.474609,955.005127 
	C1338.737793,965.365417 1346.753662,975.292603 1353.039307,986.215393 
	C1358.622192,995.916687 1365.464478,1000.030212 1376.609863,998.376831 
	C1383.014893,997.426636 1389.676025,998.204529 1396.674683,998.204529 
	C1390.011719,988.649597 1383.847778,979.771606 1377.642456,970.922668 
	C1371.439209,962.077148 1365.194580,953.260620 1358.799805,944.192627 
	C1360.744873,943.416382 1362.424316,942.739624 1364.108643,942.074829 
	C1373.409302,938.403809 1380.730591,932.415710 1385.722778,923.676941 
	C1403.772095,892.082825 1385.203247,853.926331 1349.031982,851.262146 
	C1322.883301,849.336304 1296.478638,850.886597 1269.889404,850.886597 
	C1269.889404,899.582886 1269.889404,948.761536 1269.889404,997.795288 
	C1279.674927,997.795288 1289.065308,997.795288 1298.941406,997.795288 
	C1298.941406,981.334900 1298.941406,965.244934 1298.941406,948.776062 
	C1306.392090,948.776062 1313.369263,949.101746 1320.298828,948.667480 
	C1325.355225,948.350769 1328.990356,949.626648 1331.474609,955.005127 
M1878.261841,947.788086 
	C1884.250000,928.170227 1883.451538,908.822998 1874.345703,890.431763 
	C1860.529907,862.528137 1836.359131,851.005188 1806.460083,850.141724 
	C1786.994141,849.579529 1767.498169,850.049744 1748.015625,850.081604 
	C1747.077148,850.083130 1746.138916,850.317505 1745.116211,850.454712 
	C1745.116211,899.793091 1745.116211,948.854004 1745.116211,997.701965 
	C1768.292969,997.701965 1791.376343,999.350525 1814.126099,997.298096 
	C1844.790649,994.531616 1867.427856,978.814880 1878.261841,947.788086 
M1569.555908,998.256897 
	C1574.885620,998.252075 1580.225586,998.044861 1585.541138,998.317322 
	C1588.795166,998.484070 1590.160278,997.192261 1591.242310,994.263733 
	C1594.584595,985.219360 1598.408203,976.351990 1601.705322,967.292358 
	C1602.769897,964.367065 1604.295288,963.655762 1607.165405,963.669617 
	C1626.484985,963.763062 1645.806030,963.779907 1665.124634,963.607239 
	C1668.168213,963.580017 1669.493774,964.613281 1670.552124,967.326721 
	C1674.175415,976.616272 1677.991211,985.833069 1681.906006,995.004089 
	C1682.448975,996.275635 1683.938965,998.018494 1685.026978,998.044922 
	C1694.779053,998.281921 1704.539307,998.183167 1714.844360,998.183167 
	C1712.172974,992.174133 1709.724854,986.775085 1707.363403,981.338440 
	C1688.743042,938.470276 1670.119751,895.603394 1651.584473,852.698425 
	C1650.579224,850.371582 1649.494019,849.467163 1646.845215,849.569153 
	C1640.192993,849.825256 1633.508423,849.943909 1626.869263,849.558777 
	C1623.072266,849.338562 1621.391357,850.661621 1619.950073,854.055420 
	C1601.426514,897.671936 1582.744263,941.220886 1564.138306,984.802429 
	C1562.291382,989.128723 1560.682617,993.556763 1558.835571,998.263000 
	C1562.604492,998.263000 1565.594360,998.263000 1569.555908,998.256897 
M1222.610107,959.812866 
	C1207.354248,924.529968 1192.054688,889.265869 1176.917114,853.932312 
	C1175.552124,850.746155 1174.067017,849.236816 1170.411255,849.550232 
	C1165.944702,849.933105 1161.326538,850.242065 1156.943237,849.534241 
	C1148.942749,848.242188 1145.375977,851.265564 1142.186768,858.842651 
	C1123.407471,903.462585 1103.899658,947.775818 1084.647949,992.196960 
	C1083.875122,993.980225 1083.210327,995.810242 1082.325928,998.046387 
	C1092.149170,998.046387 1101.297363,998.162048 1110.435669,997.914612 
	C1111.722046,997.879700 1113.565186,996.331177 1114.124023,995.039124 
	C1118.085815,985.879822 1121.959106,976.671936 1125.458130,967.328735 
	C1126.612549,964.246338 1128.177490,963.396973 1131.250977,963.411987 
	C1150.744995,963.507385 1170.240234,963.509583 1189.733521,963.345947 
	C1192.622925,963.321777 1193.815552,964.428894 1194.784058,966.895325 
	C1198.851196,977.253174 1203.076416,987.548950 1207.177246,997.702942 
	C1217.635986,997.702942 1227.840942,997.702942 1238.544312,997.702942 
	C1233.202271,984.983459 1228.062134,972.744751 1222.610107,959.812866 
M1548.087158,895.279663 
	C1545.363403,870.553284 1528.852417,852.948425 1504.152588,851.181152 
	C1482.941650,849.663452 1461.567993,850.417358 1440.266235,850.176575 
	C1437.480103,850.145081 1434.693237,850.172180 1431.540283,850.172180 
	C1431.540283,899.679565 1431.540283,948.731384 1431.540283,998.024170 
	C1440.909668,998.024170 1450.339233,998.024170 1460.316406,998.024170 
	C1460.316406,983.249268 1460.316406,968.686279 1460.316406,953.743286 
	C1463.128174,953.607727 1465.416382,953.438416 1467.707031,953.397278 
	C1477.029541,953.229614 1486.372437,953.438354 1495.672363,952.898010 
	C1529.832764,950.913208 1549.675415,929.332275 1548.087158,895.279663 
M387.485046,1387.993408 
	C404.969604,1401.438721 422.454163,1414.884033 440.180359,1428.515015 
	C440.180359,1397.597046 440.180359,1366.976807 440.180359,1335.796021 
	C409.050842,1342.641113 378.461243,1349.367310 346.176178,1356.466431 
	C360.546143,1367.434082 373.732178,1377.498169 387.485046,1387.993408 
M1174.030396,1204.500000 
	C1174.030396,1217.402832 1174.030396,1230.305664 1174.030396,1243.051147 
	C1177.398193,1243.051147 1180.108521,1243.051147 1182.919067,1243.051147 
	C1182.919067,1237.825806 1182.919067,1233.000122 1182.919067,1228.174438 
	C1182.919067,1223.466797 1182.919067,1218.759155 1182.919067,1213.462524 
	C1197.352783,1226.309448 1214.296875,1227.348267 1225.656982,1216.651367 
	C1238.191040,1204.848877 1239.952271,1184.008179 1229.492676,1170.640869 
	C1225.016724,1164.920654 1219.261841,1161.182617 1212.026733,1159.934326 
	C1200.505371,1157.946411 1190.838501,1161.397095 1182.375854,1171.659912 
	C1182.375854,1167.063599 1182.375854,1164.191162 1182.375854,1161.335938 
	C1179.223022,1161.335938 1176.628174,1161.335938 1174.027100,1161.335938 
	C1174.027100,1175.560425 1174.027100,1189.530151 1174.030396,1204.500000 
M1679.997681,1165.475342 
	C1678.871094,1164.768188 1677.781372,1163.992065 1676.612305,1163.364136 
	C1659.933594,1154.405396 1639.165894,1161.298584 1631.914185,1178.182983 
	C1624.263916,1195.995728 1632.827637,1216.609619 1650.359131,1222.582153 
	C1664.895508,1227.534180 1681.785767,1221.449341 1689.051636,1208.642944 
	C1697.102051,1194.453247 1693.559082,1176.595703 1679.997681,1165.475342 
M1543.074829,1213.570679 
	C1544.212402,1211.934204 1545.474487,1210.369629 1546.467651,1208.649658 
	C1554.621094,1194.529175 1551.007324,1175.242310 1538.495239,1165.845459 
	C1526.113403,1156.546387 1507.224243,1157.608643 1496.739868,1168.193848 
	C1484.024170,1181.031738 1484.027344,1202.964355 1496.746338,1215.529907 
	C1508.936035,1227.572510 1529.825562,1226.932739 1543.074829,1213.570679 
M1367.078003,1205.537720 
	C1363.757935,1211.073242 1355.892578,1214.239624 1358.197388,1222.870117 
	C1375.522827,1222.870117 1392.901123,1222.870117 1410.093506,1222.870117 
	C1410.093506,1220.118286 1410.093506,1217.688843 1410.093506,1214.808594 
	C1396.616211,1214.808594 1383.473022,1214.808594 1369.848022,1214.808594 
	C1382.315308,1199.643188 1394.284668,1184.935791 1406.457886,1170.399292 
	C1408.919678,1167.459473 1409.994141,1164.653931 1408.849365,1161.178223 
	C1392.507690,1161.178223 1376.414185,1161.178223 1360.263794,1161.178223 
	C1360.263794,1163.838379 1360.263794,1166.201294 1360.263794,1168.780762 
	C1372.343140,1168.780762 1384.057007,1168.780762 1396.971069,1168.780762 
	C1386.750610,1181.360107 1377.146362,1193.181152 1367.078003,1205.537720 
M1121.980957,1214.912598 
	C1110.617310,1218.983521 1100.817749,1215.494263 1091.594727,1208.199463 
	C1089.875610,1210.457031 1088.332886,1212.482910 1086.721069,1214.599609 
	C1096.598877,1222.700928 1107.405273,1225.612183 1119.356689,1223.846069 
	C1127.075684,1222.705322 1133.224609,1219.017212 1135.625732,1211.000854 
	C1138.353638,1201.894409 1133.510010,1193.481567 1123.555054,1190.028320 
	C1117.116943,1187.795044 1110.552979,1185.919800 1104.140015,1183.619873 
	C1100.543701,1182.330078 1098.442749,1179.626953 1098.747803,1175.547363 
	C1099.044922,1171.575317 1101.358643,1169.142212 1104.972534,1167.953735 
	C1106.683472,1167.391113 1108.531006,1167.107422 1110.335693,1166.990479 
	C1117.636719,1166.517212 1123.932739,1169.181152 1129.776123,1173.943359 
	C1131.391235,1171.486328 1132.802246,1169.339722 1134.173462,1167.253662 
	C1125.591431,1159.856445 1110.598145,1157.328979 1100.858276,1161.369385 
	C1091.548706,1165.231079 1087.605957,1175.425415 1092.064819,1184.062256 
	C1094.740967,1189.246216 1099.573364,1191.392212 1104.726318,1193.058350 
	C1110.256714,1194.846680 1116.044556,1196.047729 1121.299072,1198.432739 
	C1129.039307,1201.946289 1129.452515,1209.178467 1121.980957,1214.912598 
M1583.850708,1218.239502 
	C1583.850708,1219.841187 1583.850708,1221.442749 1583.850708,1222.981201 
	C1588.079102,1222.981201 1591.823730,1222.981201 1595.418945,1222.981201 
	C1595.418945,1218.594238 1595.418945,1214.522095 1595.418945,1210.286499 
	C1591.422485,1210.286499 1587.817383,1210.286499 1583.854736,1210.286499 
	C1583.854736,1212.753662 1583.854736,1215.054565 1583.850708,1218.239502 
M1268.368408,1211.123779 
	C1268.368408,1215.075073 1268.368408,1219.026489 1268.368408,1223.257080 
	C1272.251221,1223.257080 1275.982422,1223.257080 1279.824463,1223.257080 
	C1279.824463,1218.979004 1279.824463,1214.902344 1279.824463,1210.643066 
	C1276.063843,1210.643066 1272.588379,1210.643066 1268.368408,1211.123779 
M1737.087036,1221.317017 
	C1737.087036,1217.718750 1737.087036,1214.120483 1737.087036,1210.367554 
	C1732.789917,1210.367554 1729.078369,1210.367554 1725.262207,1210.367554 
	C1725.262207,1214.714355 1725.262207,1218.771851 1725.262207,1223.582642 
	C1729.379883,1223.118286 1733.185669,1222.689209 1737.087036,1221.317017 
z"/>
<path fill="#0AB4B5" opacity="1.000000" stroke="none" 
	d="
M649.711914,1391.711182 
	C602.823181,1402.021973 556.339539,1412.223022 509.858856,1422.437866 
	C494.256836,1425.866577 478.664398,1429.338867 463.060730,1432.760132 
	C461.939331,1433.005859 460.761414,1432.994019 458.340912,1433.221069 
	C458.340912,1423.092407 458.350220,1413.190063 458.339417,1403.287720 
	C458.248199,1319.466187 458.110077,1235.644775 458.072021,1151.823242 
	C458.035492,1071.334473 458.014587,990.845337 458.290802,910.357422 
	C458.312408,904.062195 459.705811,897.321960 462.258270,891.588318 
	C466.290192,882.531372 474.348236,877.990845 484.109497,875.941162 
	C521.405945,868.109741 558.651855,860.036682 595.907593,852.012207 
	C670.101379,836.031494 744.290039,820.026978 818.479248,804.025085 
	C863.543335,794.305237 908.569519,784.405151 953.684753,774.929321 
	C970.912964,771.310730 984.082642,782.295166 984.256226,799.978943 
	C984.545776,829.470642 984.585571,858.965393 984.620728,888.458923 
	C984.668823,928.777527 984.602356,969.096252 984.606018,1009.414917 
	C984.614319,1101.568726 984.651001,1193.722534 984.605591,1285.876343 
	C984.603333,1290.515503 984.583496,1295.318848 983.455566,1299.762329 
	C980.182495,1312.656982 971.397278,1320.027954 958.564819,1322.866455 
	C928.179626,1329.587646 897.793030,1336.302612 867.419861,1343.077881 
	C794.981995,1359.236450 722.551575,1375.428345 649.711914,1391.711182 
M807.418030,1202.140137 
	C807.849426,1203.223389 808.286926,1204.304321 808.711060,1205.390381 
	C810.646179,1210.345581 811.248657,1217.263916 814.874695,1219.719971 
	C818.690674,1222.304565 825.395508,1220.725220 830.839966,1220.781494 
	C839.422852,1220.870117 848.007324,1220.804932 857.107788,1220.804932 
	C856.448120,1218.912231 856.065125,1217.674194 855.590576,1216.472168 
	C842.020142,1182.100342 828.564270,1147.682617 814.832825,1113.375244 
	C795.224365,1064.384644 775.362183,1015.495483 755.780212,966.494324 
	C754.131409,962.368408 751.950073,961.026367 747.643372,961.241455 
	C740.328308,961.606812 732.982849,961.383911 725.650269,961.371399 
	C710.975586,961.346375 710.867249,961.292419 705.306519,975.100525 
	C676.699341,1046.136353 648.135620,1117.189575 619.602783,1188.255371 
	C615.341248,1198.869263 611.323242,1209.581055 606.949280,1220.875732 
	C619.227234,1220.875732 630.851807,1220.668335 642.461792,1220.987793 
	C646.546265,1221.100220 648.179810,1219.658447 649.595459,1215.983887 
	C674.076172,1152.445312 698.705017,1088.963989 723.320984,1025.477539 
	C725.909912,1018.800537 728.622498,1012.171448 731.754395,1004.325928 
	C746.615051,1042.690674 761.004883,1079.839722 775.736084,1117.870239 
	C773.056641,1117.870239 771.277222,1117.862793 769.497925,1117.871216 
	C753.332764,1117.947876 737.167358,1118.105347 721.002747,1118.040039 
	C717.812866,1118.027222 716.321594,1118.997925 715.398071,1122.149780 
	C713.059387,1130.131348 710.287292,1137.985596 707.700317,1145.894531 
	C707.005920,1148.017334 706.352722,1150.153687 705.594055,1152.558105 
	C732.251038,1152.558105 758.238464,1152.634766 784.224365,1152.469238 
	C787.812195,1152.446411 789.537720,1153.504639 790.750488,1156.892090 
	C796.080505,1171.780762 801.670166,1186.576416 807.418030,1202.140137 
z"/>
<path fill="#0F3261" opacity="1.000000" stroke="none" 
	d="
M187.926788,1224.995972 
	C187.889496,1068.509277 187.842865,912.521729 187.854080,756.534180 
	C187.854446,751.562866 187.737015,746.417053 188.904083,741.653870 
	C192.045822,728.831238 200.604141,720.853149 213.378662,718.045410 
	C250.441895,709.899475 287.566345,702.031555 324.674530,694.090698 
	C412.722260,675.248962 500.770203,656.408264 588.826904,637.608582 
	C623.823669,630.136902 658.837280,622.743347 693.856201,615.376221 
	C710.965149,611.776978 725.817993,622.095215 726.567993,639.325500 
	C727.399841,658.436462 726.758301,677.611511 726.758301,697.172180 
	C714.737549,699.779297 702.729736,702.393677 690.717468,704.987305 
	C606.445557,723.182190 522.172791,741.373291 437.900116,759.564758 
	C404.873077,766.694214 371.821991,773.714233 338.826294,780.985657 
	C314.793396,786.281799 303.014160,801.069031 303.018799,825.592102 
	C303.050171,991.912048 303.112610,1158.231934 303.164856,1324.551880 
	C303.165894,1327.876343 303.164978,1331.200806 303.164978,1335.638062 
	C300.765930,1333.940186 298.934906,1332.714478 297.178101,1331.390381 
	C266.979218,1308.630005 237.144455,1285.362915 206.434586,1263.314697 
	C192.860092,1253.568848 185.613388,1242.265869 187.926788,1224.995972 
z"/>
<path fill="#A6A6A6" opacity="1.000000" stroke="none" 
	d="
M519.402466,850.377808 
	C504.210419,853.662048 489.366119,856.583069 474.645691,860.032654 
	C452.305389,865.267761 440.404266,880.005005 440.244873,902.717957 
	C440.051880,930.212280 440.151550,957.709412 440.247040,985.204895 
	C440.354645,1016.187988 440.770325,1047.170776 440.744965,1078.153442 
	C440.701447,1131.299438 440.333954,1184.445190 440.275635,1237.591187 
	C440.248596,1262.216309 440.533508,1286.843384 440.915039,1311.465820 
	C440.981262,1315.739380 439.884552,1317.331177 435.438019,1318.288086 
	C399.037048,1326.120972 362.715515,1334.322998 326.367981,1342.404419 
	C324.943451,1342.721069 323.499878,1342.952271 321.412109,1343.346680 
	C321.265564,1341.179565 321.046112,1339.443726 321.045319,1337.708008 
	C320.966797,1167.567139 320.973480,997.426208 320.716980,827.285645 
	C320.695496,813.021423 329.924500,800.750549 346.687805,797.138306 
	C423.382416,780.611450 500.084747,764.120544 576.785095,747.620056 
	C657.057068,730.351135 737.321960,713.049377 817.618347,695.894531 
	C823.531555,694.631226 829.853699,693.181580 835.672180,694.012878 
	C847.733337,695.736084 855.686157,705.434204 855.878357,717.687439 
	C856.176147,736.679688 855.878723,755.680542 856.008606,774.676575 
	C856.033020,778.247742 853.933228,778.550354 851.338379,779.104736 
	C799.971924,790.078857 748.611633,801.081360 697.262146,812.134460 
	C638.928101,824.690979 580.606201,837.303650 522.277283,849.883911 
	C521.464722,850.059204 520.630005,850.131165 519.402466,850.377808 
z"/>
<path fill="#102D53" opacity="1.000000" stroke="none" 
	d="
M1331.263916,954.704895 
	C1328.990356,949.626648 1325.355225,948.350769 1320.298828,948.667480 
	C1313.369263,949.101746 1306.392090,948.776062 1298.941406,948.776062 
	C1298.941406,965.244934 1298.941406,981.334900 1298.941406,997.795288 
	C1289.065308,997.795288 1279.674927,997.795288 1269.889404,997.795288 
	C1269.889404,948.761536 1269.889404,899.582886 1269.889404,850.886597 
	C1296.478638,850.886597 1322.883301,849.336304 1349.031982,851.262146 
	C1385.203247,853.926331 1403.772095,892.082825 1385.722778,923.676941 
	C1380.730591,932.415710 1373.409302,938.403809 1364.108643,942.074829 
	C1362.424316,942.739624 1360.744873,943.416382 1358.799805,944.192627 
	C1365.194580,953.260620 1371.439209,962.077148 1377.642456,970.922668 
	C1383.847778,979.771606 1390.011719,988.649597 1396.674683,998.204529 
	C1389.676025,998.204529 1383.014893,997.426636 1376.609863,998.376831 
	C1365.464478,1000.030212 1358.622192,995.916687 1353.039307,986.215393 
	C1346.753662,975.292603 1338.737793,965.365417 1331.263916,954.704895 
M1313.501831,876.733826 
	C1308.585815,876.733826 1303.669800,876.733826 1298.834473,876.733826 
	C1298.834473,892.529297 1298.834473,907.457886 1298.834473,921.904175 
	C1314.208252,921.904175 1329.334106,922.437439 1344.379639,921.571350 
	C1348.753418,921.319519 1353.728516,917.863342 1356.969360,914.479309 
	C1363.322632,907.845520 1364.493164,899.431030 1361.223877,890.771423 
	C1357.827515,881.774902 1350.508057,877.731323 1341.462158,877.128967 
	C1332.506348,876.532593 1323.490967,876.828857 1313.501831,876.733826 
z"/>
<path fill="#102D54" opacity="1.000000" stroke="none" 
	d="
M1878.153809,948.171448 
	C1867.427856,978.814880 1844.790649,994.531616 1814.126099,997.298096 
	C1791.376343,999.350525 1768.292969,997.701965 1745.116211,997.701965 
	C1745.116211,948.854004 1745.116211,899.793091 1745.116211,850.454712 
	C1746.138916,850.317505 1747.077148,850.083130 1748.015625,850.081604 
	C1767.498169,850.049744 1786.994141,849.579529 1806.460083,850.141724 
	C1836.359131,851.005188 1860.529907,862.528137 1874.345703,890.431763 
	C1883.451538,908.822998 1884.250000,928.170227 1878.153809,948.171448 
M1774.471680,897.499390 
	C1774.471680,921.949219 1774.471680,946.399048 1774.471680,970.815002 
	C1786.766479,970.815002 1798.632935,971.515686 1810.387207,970.665588 
	C1833.174438,969.017639 1849.258545,952.964661 1851.826904,930.462585 
	C1854.505249,906.996887 1842.002930,886.419617 1820.485718,879.538330 
	C1805.410889,874.717285 1789.876221,877.703430 1774.468262,876.841919 
	C1774.468262,883.882568 1774.468262,890.191040 1774.471680,897.499390 
z"/>
<path fill="#102D53" opacity="1.000000" stroke="none" 
	d="
M1569.070068,998.259949 
	C1565.594360,998.263000 1562.604492,998.263000 1558.835571,998.263000 
	C1560.682617,993.556763 1562.291382,989.128723 1564.138306,984.802429 
	C1582.744263,941.220886 1601.426514,897.671936 1619.950073,854.055420 
	C1621.391357,850.661621 1623.072266,849.338562 1626.869263,849.558777 
	C1633.508423,849.943909 1640.192993,849.825256 1646.845215,849.569153 
	C1649.494019,849.467163 1650.579224,850.371582 1651.584473,852.698425 
	C1670.119751,895.603394 1688.743042,938.470276 1707.363403,981.338440 
	C1709.724854,986.775085 1712.172974,992.174133 1714.844360,998.183167 
	C1704.539307,998.183167 1694.779053,998.281921 1685.026978,998.044922 
	C1683.938965,998.018494 1682.448975,996.275635 1681.906006,995.004089 
	C1677.991211,985.833069 1674.175415,976.616272 1670.552124,967.326721 
	C1669.493774,964.613281 1668.168213,963.580017 1665.124634,963.607239 
	C1645.806030,963.779907 1626.484985,963.763062 1607.165405,963.669617 
	C1604.295288,963.655762 1602.769897,964.367065 1601.705322,967.292358 
	C1598.408203,976.351990 1594.584595,985.219360 1591.242310,994.263733 
	C1590.160278,997.192261 1588.795166,998.484070 1585.541138,998.317322 
	C1580.225586,998.044861 1574.885620,998.252075 1569.070068,998.259949 
M1638.111938,889.413086 
	C1637.474487,887.958984 1636.837036,886.504883 1635.834473,884.217651 
	C1628.135620,902.233765 1620.804932,919.388550 1613.282837,936.991333 
	C1628.206543,936.991333 1642.449585,936.991333 1657.246948,936.991333 
	C1650.885132,921.169189 1644.641479,905.641113 1638.111938,889.413086 
z"/>
<path fill="#102D53" opacity="1.000000" stroke="none" 
	d="
M1222.765991,960.159424 
	C1228.062134,972.744751 1233.202271,984.983459 1238.544312,997.702942 
	C1227.840942,997.702942 1217.635986,997.702942 1207.177246,997.702942 
	C1203.076416,987.548950 1198.851196,977.253174 1194.784058,966.895325 
	C1193.815552,964.428894 1192.622925,963.321777 1189.733521,963.345947 
	C1170.240234,963.509583 1150.744995,963.507385 1131.250977,963.411987 
	C1128.177490,963.396973 1126.612549,964.246338 1125.458130,967.328735 
	C1121.959106,976.671936 1118.085815,985.879822 1114.124023,995.039124 
	C1113.565186,996.331177 1111.722046,997.879700 1110.435669,997.914612 
	C1101.297363,998.162048 1092.149170,998.046387 1082.325928,998.046387 
	C1083.210327,995.810242 1083.875122,993.980225 1084.647949,992.196960 
	C1103.899658,947.775818 1123.407471,903.462585 1142.186768,858.842651 
	C1145.375977,851.265564 1148.942749,848.242188 1156.943237,849.534241 
	C1161.326538,850.242065 1165.944702,849.933105 1170.411255,849.550232 
	C1174.067017,849.236816 1175.552124,850.746155 1176.917114,853.932312 
	C1192.054688,889.265869 1207.354248,924.529968 1222.765991,960.159424 
M1174.073242,917.394043 
	C1169.598389,906.609924 1165.123535,895.825745 1160.271973,884.133728 
	C1152.486694,902.161255 1145.089966,919.288818 1137.488037,936.891602 
	C1152.532349,936.891602 1166.891479,936.891602 1181.834839,936.891602 
	C1179.237427,930.375671 1176.793213,924.244202 1174.073242,917.394043 
z"/>
<path fill="#112D54" opacity="1.000000" stroke="none" 
	d="
M1548.118042,895.713135 
	C1549.675415,929.332275 1529.832764,950.913208 1495.672363,952.898010 
	C1486.372437,953.438354 1477.029541,953.229614 1467.707031,953.397278 
	C1465.416382,953.438416 1463.128174,953.607727 1460.316406,953.743286 
	C1460.316406,968.686279 1460.316406,983.249268 1460.316406,998.024170 
	C1450.339233,998.024170 1440.909668,998.024170 1431.540283,998.024170 
	C1431.540283,948.731384 1431.540283,899.679565 1431.540283,850.172180 
	C1434.693237,850.172180 1437.480103,850.145081 1440.266235,850.176575 
	C1461.567993,850.417358 1482.941650,849.663452 1504.152588,851.181152 
	C1528.852417,852.948425 1545.363403,870.553284 1548.118042,895.713135 
M1460.340332,881.687988 
	C1460.340332,896.761536 1460.340332,911.835144 1460.340332,927.129883 
	C1470.175659,927.129883 1479.332275,927.139709 1488.489014,927.122314 
	C1490.487427,927.118469 1492.491821,927.098389 1494.483032,926.947632 
	C1506.548340,926.033997 1515.126831,919.539856 1517.927124,909.252258 
	C1522.554077,892.253723 1512.198486,877.716248 1494.567505,876.990784 
	C1484.254272,876.566406 1473.908691,876.984436 1463.582886,876.771667 
	C1460.323975,876.704590 1460.040405,878.289612 1460.340332,881.687988 
z"/>
<path fill="#21B1B8" opacity="1.000000" stroke="none" 
	d="
M1887.271606,1081.003906 
	C1887.271606,1081.003906 1886.993286,1081.319702 1886.536377,1081.412476 
	C1880.925171,1081.560303 1875.770508,1081.674561 1870.616211,1081.661011 
	C1830.970093,1081.557251 1791.323975,1081.334839 1751.677856,1081.334717 
	C1712.708496,1081.334717 1673.739258,1081.644653 1634.769897,1081.657959 
	C1505.996094,1081.702148 1377.222412,1081.673706 1248.448608,1081.673340 
	C1219.126465,1081.673218 1189.804199,1081.638550 1160.482056,1081.684814 
	C1134.342163,1081.725952 1108.202637,1081.856812 1082.062866,1081.947998 
	C1081.791382,1081.779175 1081.552490,1081.572632 1081.286743,1080.737915 
	C1081.392334,1076.892456 1081.557007,1073.637817 1081.726929,1070.280762 
	C1350.352539,1070.280762 1618.471191,1070.280762 1887.271606,1070.280762 
	C1887.271606,1074.087280 1887.271606,1077.545532 1887.271606,1081.003906 
z"/>
<path fill="#0DB1B0" opacity="1.000000" stroke="none" 
	d="
M387.201630,1387.777832 
	C373.732178,1377.498169 360.546143,1367.434082 346.176178,1356.466431 
	C378.461243,1349.367310 409.050842,1342.641113 440.180359,1335.796021 
	C440.180359,1366.976807 440.180359,1397.597046 440.180359,1428.515015 
	C422.454163,1414.884033 404.969604,1401.438721 387.201630,1387.777832 
z"/>
<path fill="#162C4E" opacity="1.000000" stroke="none" 
	d="
M1174.028809,1204.000000 
	C1174.027100,1189.530151 1174.027100,1175.560425 1174.027100,1161.335938 
	C1176.628174,1161.335938 1179.223022,1161.335938 1182.375854,1161.335938 
	C1182.375854,1164.191162 1182.375854,1167.063599 1182.375854,1171.659912 
	C1190.838501,1161.397095 1200.505371,1157.946411 1212.026733,1159.934326 
	C1219.261841,1161.182617 1225.016724,1164.920654 1229.492676,1170.640869 
	C1239.952271,1184.008179 1238.191040,1204.848877 1225.656982,1216.651367 
	C1214.296875,1227.348267 1197.352783,1226.309448 1182.919067,1213.462524 
	C1182.919067,1218.759155 1182.919067,1223.466797 1182.919067,1228.174438 
	C1182.919067,1233.000122 1182.919067,1237.825806 1182.919067,1243.051147 
	C1180.108521,1243.051147 1177.398193,1243.051147 1174.030396,1243.051147 
	C1174.030396,1230.305664 1174.030396,1217.402832 1174.028809,1204.000000 
M1185.374268,1179.118042 
	C1184.369385,1183.459717 1182.632812,1187.778687 1182.498047,1192.147217 
	C1182.109863,1204.732666 1191.210327,1215.312866 1202.515503,1216.231567 
	C1214.969604,1217.243652 1224.626831,1209.466919 1226.724243,1196.736694 
	C1228.766968,1184.339233 1222.994385,1172.612061 1212.814209,1168.478394 
	C1202.883789,1164.446045 1192.542725,1168.272949 1185.374268,1179.118042 
z"/>
<path fill="#C8FBFB" opacity="1.000000" stroke="none" 
	d="
M1082.126221,1082.348877 
	C1108.202637,1081.856812 1134.342163,1081.725952 1160.482056,1081.684814 
	C1189.804199,1081.638550 1219.126465,1081.673218 1248.448608,1081.673340 
	C1377.222412,1081.673706 1505.996094,1081.702148 1634.769897,1081.657959 
	C1673.739258,1081.644653 1712.708496,1081.334717 1751.677856,1081.334717 
	C1791.323975,1081.334839 1830.970093,1081.557251 1870.616211,1081.661011 
	C1875.770508,1081.674561 1880.925171,1081.560303 1886.453369,1081.605835 
	C1884.870728,1082.456299 1882.916138,1083.854004 1880.957275,1083.860229 
	C1840.636230,1083.987793 1800.314575,1083.957275 1759.993164,1083.957275 
	C1536.225586,1083.956909 1312.458008,1083.959961 1088.690430,1083.906128 
	C1086.523315,1083.905640 1084.356567,1083.151733 1082.126221,1082.348877 
z"/>
<path fill="#C8FBFB" opacity="1.000000" stroke="none" 
	d="
M1887.613770,1080.926514 
	C1887.271606,1077.545532 1887.271606,1074.087280 1887.271606,1070.280762 
	C1618.471191,1070.280762 1350.352539,1070.280762 1081.726929,1070.280762 
	C1081.557007,1073.637817 1081.392334,1076.892456 1081.146729,1080.545898 
	C1080.765137,1077.408081 1080.288086,1073.870850 1080.303589,1070.335571 
	C1080.307007,1069.575195 1081.989258,1068.460327 1083.078613,1068.157349 
	C1084.473633,1067.769409 1086.051392,1068.026001 1087.550415,1068.026001 
	C1351.743774,1068.020996 1615.937012,1068.018066 1880.130371,1068.014648 
	C1890.200806,1068.014526 1892.165771,1071.236938 1887.613770,1080.926514 
z"/>
<path fill="#162D50" opacity="1.000000" stroke="none" 
	d="
M1680.285156,1165.690918 
	C1693.559082,1176.595703 1697.102051,1194.453247 1689.051636,1208.642944 
	C1681.785767,1221.449341 1664.895508,1227.534180 1650.359131,1222.582153 
	C1632.827637,1216.609619 1624.263916,1195.995728 1631.914185,1178.182983 
	C1639.165894,1161.298584 1659.933594,1154.405396 1676.612305,1163.364136 
	C1677.781372,1163.992065 1678.871094,1164.768188 1680.285156,1165.690918 
M1656.536377,1167.750977 
	C1644.528931,1171.071411 1638.003174,1180.295044 1638.579346,1193.132568 
	C1639.128906,1205.380615 1646.136230,1214.246460 1656.973755,1216.075317 
	C1666.426025,1217.670288 1674.220459,1214.451660 1679.583618,1206.625610 
	C1685.689819,1197.714844 1685.881348,1188.006470 1680.531738,1178.772461 
	C1675.495728,1170.079834 1667.532715,1166.189575 1656.536377,1167.750977 
z"/>
<path fill="#162D50" opacity="1.000000" stroke="none" 
	d="
M1542.850830,1213.847656 
	C1529.825562,1226.932739 1508.936035,1227.572510 1496.746338,1215.529907 
	C1484.027344,1202.964355 1484.024170,1181.031738 1496.739868,1168.193848 
	C1507.224243,1157.608643 1526.113403,1156.546387 1538.495239,1165.845459 
	C1551.007324,1175.242310 1554.621094,1194.529175 1546.467651,1208.649658 
	C1545.474487,1210.369629 1544.212402,1211.934204 1542.850830,1213.847656 
M1496.524048,1188.735962 
	C1496.041138,1197.591431 1497.661743,1205.684082 1505.073853,1211.554199 
	C1513.317383,1218.082642 1523.916626,1218.222046 1532.329834,1212.003418 
	C1541.248047,1205.411499 1544.577881,1192.674683 1540.195312,1181.916748 
	C1536.189941,1172.084595 1526.533203,1166.083252 1516.524170,1167.205933 
	C1506.244263,1168.359009 1498.356567,1176.544556 1496.524048,1188.735962 
z"/>
<path fill="#162D50" opacity="1.000000" stroke="none" 
	d="
M1367.310059,1205.270020 
	C1377.146362,1193.181152 1386.750610,1181.360107 1396.971069,1168.780762 
	C1384.057007,1168.780762 1372.343140,1168.780762 1360.263794,1168.780762 
	C1360.263794,1166.201294 1360.263794,1163.838379 1360.263794,1161.178223 
	C1376.414185,1161.178223 1392.507690,1161.178223 1408.849365,1161.178223 
	C1409.994141,1164.653931 1408.919678,1167.459473 1406.457886,1170.399292 
	C1394.284668,1184.935791 1382.315308,1199.643188 1369.848022,1214.808594 
	C1383.473022,1214.808594 1396.616211,1214.808594 1410.093506,1214.808594 
	C1410.093506,1217.688843 1410.093506,1220.118286 1410.093506,1222.870117 
	C1392.901123,1222.870117 1375.522827,1222.870117 1358.197388,1222.870117 
	C1355.892578,1214.239624 1363.757935,1211.073242 1367.310059,1205.270020 
z"/>
<path fill="#162C4E" opacity="1.000000" stroke="none" 
	d="
M1122.342163,1214.727051 
	C1129.452515,1209.178467 1129.039307,1201.946289 1121.299072,1198.432739 
	C1116.044556,1196.047729 1110.256714,1194.846680 1104.726318,1193.058350 
	C1099.573364,1191.392212 1094.740967,1189.246216 1092.064819,1184.062256 
	C1087.605957,1175.425415 1091.548706,1165.231079 1100.858276,1161.369385 
	C1110.598145,1157.328979 1125.591431,1159.856445 1134.173462,1167.253662 
	C1132.802246,1169.339722 1131.391235,1171.486328 1129.776123,1173.943359 
	C1123.932739,1169.181152 1117.636719,1166.517212 1110.335693,1166.990479 
	C1108.531006,1167.107422 1106.683472,1167.391113 1104.972534,1167.953735 
	C1101.358643,1169.142212 1099.044922,1171.575317 1098.747803,1175.547363 
	C1098.442749,1179.626953 1100.543701,1182.330078 1104.140015,1183.619873 
	C1110.552979,1185.919800 1117.116943,1187.795044 1123.555054,1190.028320 
	C1133.510010,1193.481567 1138.353638,1201.894409 1135.625732,1211.000854 
	C1133.224609,1219.017212 1127.075684,1222.705322 1119.356689,1223.846069 
	C1107.405273,1225.612183 1096.598877,1222.700928 1086.721069,1214.599609 
	C1088.332886,1212.482910 1089.875610,1210.457031 1091.594727,1208.199463 
	C1100.817749,1215.494263 1110.617310,1218.983521 1122.342163,1214.727051 
z"/>
<path fill="#162C4E" opacity="1.000000" stroke="none" 
	d="
M1583.852783,1217.797485 
	C1583.854736,1215.054565 1583.854736,1212.753662 1583.854736,1210.286499 
	C1587.817383,1210.286499 1591.422485,1210.286499 1595.418945,1210.286499 
	C1595.418945,1214.522095 1595.418945,1218.594238 1595.418945,1222.981201 
	C1591.823730,1222.981201 1588.079102,1222.981201 1583.850708,1222.981201 
	C1583.850708,1221.442749 1583.850708,1219.841187 1583.852783,1217.797485 
z"/>
<path fill="#162D50" opacity="1.000000" stroke="none" 
	d="
M1268.740723,1210.883423 
	C1272.588379,1210.643066 1276.063843,1210.643066 1279.824463,1210.643066 
	C1279.824463,1214.902344 1279.824463,1218.979004 1279.824463,1223.257080 
	C1275.982422,1223.257080 1272.251221,1223.257080 1268.368408,1223.257080 
	C1268.368408,1219.026489 1268.368408,1215.075073 1268.740723,1210.883423 
z"/>
<path fill="#162D50" opacity="1.000000" stroke="none" 
	d="
M1737.039307,1221.788574 
	C1733.185669,1222.689209 1729.379883,1223.118286 1725.262207,1223.582642 
	C1725.262207,1218.771851 1725.262207,1214.714355 1725.262207,1210.367554 
	C1729.078369,1210.367554 1732.789917,1210.367554 1737.087036,1210.367554 
	C1737.087036,1214.120483 1737.087036,1217.718750 1737.039307,1221.788574 
z"/>
<path fill="#F7FDFD" opacity="1.000000" stroke="none" 
	d="
M807.291870,1201.772949 
	C801.670166,1186.576416 796.080505,1171.780762 790.750488,1156.892090 
	C789.537720,1153.504639 787.812195,1152.446411 784.224365,1152.469238 
	C758.238464,1152.634766 732.251038,1152.558105 705.594055,1152.558105 
	C706.352722,1150.153687 707.005920,1148.017334 707.700317,1145.894531 
	C710.287292,1137.985596 713.059387,1130.131348 715.398071,1122.149780 
	C716.321594,1118.997925 717.812866,1118.027222 721.002747,1118.040039 
	C737.167358,1118.105347 753.332764,1117.947876 769.497925,1117.871216 
	C771.277222,1117.862793 773.056641,1117.870239 775.736084,1117.870239 
	C761.004883,1079.839722 746.615051,1042.690674 731.754395,1004.325928 
	C728.622498,1012.171448 725.909912,1018.800537 723.320984,1025.477539 
	C698.705017,1088.963989 674.076172,1152.445312 649.595459,1215.983887 
	C648.179810,1219.658447 646.546265,1221.100220 642.461792,1220.987793 
	C630.851807,1220.668335 619.227234,1220.875732 606.949280,1220.875732 
	C611.323242,1209.581055 615.341248,1198.869263 619.602783,1188.255371 
	C648.135620,1117.189575 676.699341,1046.136353 705.306519,975.100525 
	C710.867249,961.292419 710.975586,961.346375 725.650269,961.371399 
	C732.982849,961.383911 740.328308,961.606812 747.643372,961.241455 
	C751.950073,961.026367 754.131409,962.368408 755.780212,966.494324 
	C775.362183,1015.495483 795.224365,1064.384644 814.832825,1113.375244 
	C828.564270,1147.682617 842.020142,1182.100342 855.590576,1216.472168 
	C856.065125,1217.674194 856.448120,1218.912231 857.107788,1220.804932 
	C848.007324,1220.804932 839.422852,1220.870117 830.839966,1220.781494 
	C825.395508,1220.725220 818.690674,1222.304565 814.874695,1219.719971 
	C811.248657,1217.263916 810.646179,1210.345581 808.711060,1205.390381 
	C808.286926,1204.304321 807.849426,1203.223389 807.291870,1201.772949 
z"/>
<path fill="#FBFCFC" opacity="1.000000" stroke="none" 
	d="
M1314.001709,876.733765 
	C1323.490967,876.828857 1332.506348,876.532593 1341.462158,877.128967 
	C1350.508057,877.731323 1357.827515,881.774902 1361.223877,890.771423 
	C1364.493164,899.431030 1363.322632,907.845520 1356.969360,914.479309 
	C1353.728516,917.863342 1348.753418,921.319519 1344.379639,921.571350 
	C1329.334106,922.437439 1314.208252,921.904175 1298.834473,921.904175 
	C1298.834473,907.457886 1298.834473,892.529297 1298.834473,876.733826 
	C1303.669800,876.733826 1308.585815,876.733826 1314.001709,876.733765 
z"/>
<path fill="#FBFCFC" opacity="1.000000" stroke="none" 
	d="
M1774.469971,896.999390 
	C1774.468262,890.191040 1774.468262,883.882568 1774.468262,876.841919 
	C1789.876221,877.703430 1805.410889,874.717285 1820.485718,879.538330 
	C1842.002930,886.419617 1854.505249,906.996887 1851.826904,930.462585 
	C1849.258545,952.964661 1833.174438,969.017639 1810.387207,970.665588 
	C1798.632935,971.515686 1786.766479,970.815002 1774.471680,970.815002 
	C1774.471680,946.399048 1774.471680,921.949219 1774.469971,896.999390 
z"/>
<path fill="#FAFCFC" opacity="1.000000" stroke="none" 
	d="
M1638.254883,889.763062 
	C1644.641479,905.641113 1650.885132,921.169189 1657.246948,936.991333 
	C1642.449585,936.991333 1628.206543,936.991333 1613.282837,936.991333 
	C1620.804932,919.388550 1628.135620,902.233765 1635.834473,884.217651 
	C1636.837036,886.504883 1637.474487,887.958984 1638.254883,889.763062 
z"/>
<path fill="#FAFCFC" opacity="1.000000" stroke="none" 
	d="
M1174.211182,917.753418 
	C1176.793213,924.244202 1179.237427,930.375671 1181.834839,936.891602 
	C1166.891479,936.891602 1152.532349,936.891602 1137.488037,936.891602 
	C1145.089966,919.288818 1152.486694,902.161255 1160.271973,884.133728 
	C1165.123535,895.825745 1169.598389,906.609924 1174.211182,917.753418 
z"/>
<path fill="#FAFCFC" opacity="1.000000" stroke="none" 
	d="
M1460.336426,881.211426 
	C1460.040405,878.289612 1460.323975,876.704590 1463.582886,876.771667 
	C1473.908691,876.984436 1484.254272,876.566406 1494.567505,876.990784 
	C1512.198486,877.716248 1522.554077,892.253723 1517.927124,909.252258 
	C1515.126831,919.539856 1506.548340,926.033997 1494.483032,926.947632 
	C1492.491821,927.098389 1490.487427,927.118469 1488.489014,927.122314 
	C1479.332275,927.139709 1470.175659,927.129883 1460.340332,927.129883 
	C1460.340332,911.835144 1460.340332,896.761536 1460.336426,881.211426 
z"/>
<path fill="#FAFCFC" opacity="1.000000" stroke="none" 
	d="
M1185.578857,1178.799927 
	C1192.542725,1168.272949 1202.883789,1164.446045 1212.814209,1168.478394 
	C1222.994385,1172.612061 1228.766968,1184.339233 1226.724243,1196.736694 
	C1224.626831,1209.466919 1214.969604,1217.243652 1202.515503,1216.231567 
	C1191.210327,1215.312866 1182.109863,1204.732666 1182.498047,1192.147217 
	C1182.632812,1187.778687 1184.369385,1183.459717 1185.578857,1178.799927 
z"/>
<path fill="#FAFCFC" opacity="1.000000" stroke="none" 
	d="
M1656.932495,1167.657959 
	C1667.532715,1166.189575 1675.495728,1170.079834 1680.531738,1178.772461 
	C1685.881348,1188.006470 1685.689819,1197.714844 1679.583618,1206.625610 
	C1674.220459,1214.451660 1666.426025,1217.670288 1656.973755,1216.075317 
	C1646.136230,1214.246460 1639.128906,1205.380615 1638.579346,1193.132568 
	C1638.003174,1180.295044 1644.528931,1171.071411 1656.932495,1167.657959 
z"/>
<path fill="#FAFCFC" opacity="1.000000" stroke="none" 
	d="
M1496.588623,1188.281860 
	C1498.356567,1176.544556 1506.244263,1168.359009 1516.524170,1167.205933 
	C1526.533203,1166.083252 1536.189941,1172.084595 1540.195312,1181.916748 
	C1544.577881,1192.674683 1541.248047,1205.411499 1532.329834,1212.003418 
	C1523.916626,1218.222046 1513.317383,1218.082642 1505.073853,1211.554199 
	C1497.661743,1205.684082 1496.041138,1197.591431 1496.588623,1188.281860 
z"/>
</svg>