<svg version="1.1" id="Layer_1" xmlns="http://www.w3.org/2000/svg" xmlns:xlink="http://www.w3.org/1999/xlink" x="0px" y="0px"
	 width="100%" viewBox="0 0 2048 2048" enable-background="new 0 0 2048 2048" xml:space="preserve">

<!-- 3D Icon / Folder structure -->
<path fill="#209abc" opacity="1.000000" stroke="none" 
	d="
M650.118225,1391.606934 
	C722.551575,1375.428345 794.981995,1359.236450 867.419861,1343.077881 
	C897.793030,1336.302612 928.179626,1329.587646 958.564819,1322.866455 
	C971.397278,1320.027954 980.182495,1312.656982 983.455566,1299.762329 
	C984.583496,1295.318848 984.603333,1290.515503 984.605591,1285.876343 
	C984.651001,1193.722534 984.614319,1101.568726 984.606018,1009.414917 
	C984.602356,969.096252 984.668823,928.777527 984.620728,888.458923 
	C984.585571,858.965393 984.545776,829.470642 984.256226,799.978943 
	C984.082642,782.295166 970.912964,771.310730 953.684753,774.929321 
	C908.569519,784.405151 863.543335,794.305237 818.479248,804.025085 
	C744.290039,820.026978 670.101379,836.031494 595.907593,852.012207 
	C558.651855,860.036682 521.405945,868.109741 484.109497,875.941162 
	C474.348236,877.990845 466.290192,882.531372 462.258270,891.588318 
	C459.705811,897.321960 458.312408,904.062195 458.290802,910.357422 
	C458.014587,990.845337 458.035492,1071.334473 458.072021,1151.823242 
	C458.110077,1235.644775 458.248199,1319.466187 458.339417,1403.287720 
	C458.350220,1413.190063 458.340912,1423.092407 458.340912,1433.221069 
	C460.761414,1432.994019 461.939331,1433.005859 463.060730,1432.760132 
	C478.664398,1429.338867 494.256836,1425.866577 509.858856,1422.437866 
	C556.339539,1412.223022 602.823181,1402.021973 650.118225,1391.606934 
z"/>

<!-- Letter A inside icon -->
<path fill="#ffffff" opacity="1.000000" stroke="none" 
	d="
M807.418030,1202.140137 
	C807.849426,1203.223389 808.286926,1204.304321 808.711060,1205.390381 
	C810.646179,1210.345581 811.248657,1217.263916 814.874695,1219.719971 
	C818.690674,1222.304565 825.395508,1220.725220 830.839966,1220.781494 
	C839.422852,1220.870117 848.007324,1220.804932 857.107788,1220.804932 
	C856.448120,1218.912231 856.065125,1217.674194 855.590576,1216.472168 
	C842.020142,1182.100342 828.564270,1147.682617 814.832825,1113.375244 
	C795.224365,1064.384644 775.362183,1015.495483 755.780212,966.494324 
	C754.131409,962.368408 751.950073,961.026367 747.643372,961.241455 
	C740.328308,961.606812 732.982849,961.383911 725.650269,961.371399 
	C710.975586,961.346375 710.867249,961.292419 705.306519,975.100525 
	C676.699341,1046.136353 648.135620,1117.189575 619.602783,1188.255371 
	C615.341248,1198.869263 611.323242,1209.581055 606.949280,1220.875732 
	C619.227234,1220.875732 630.851807,1220.668335 642.461792,1220.987793 
	C646.546265,1221.100220 648.179810,1219.658447 649.595459,1215.983887 
	C674.076172,1152.445312 698.705017,1088.963989 723.320984,1025.477539 
	C725.909912,1018.800537 728.622498,1012.171448 731.754395,1004.325928 
	C746.615051,1042.690674 761.004883,1079.839722 775.736084,1117.870239 
	C773.056641,1117.870239 771.277222,1117.862793 769.497925,1117.871216 
	C753.332764,1117.947876 737.167358,1118.105347 721.002747,1118.040039 
	C717.812866,1118.027222 716.321594,1118.997925 715.398071,1122.149780 
	C713.059387,1130.131348 710.287292,1137.985596 707.700317,1145.894531 
	C707.005920,1148.017334 706.352722,1150.153687 705.594055,1152.558105 
	C732.251038,1152.558105 758.238464,1152.634766 784.224365,1152.469238 
	C787.812195,1152.446411 789.537720,1153.504639 790.750488,1156.892090 
	C796.080505,1171.780762 801.670166,1186.576416 807.418030,1202.140137 
z"/>

<!-- Support structure for icon -->
<path fill="#02324b" opacity="1.000000" stroke="none" 
	d="
M187.926788,1224.995972 
	C187.889496,1068.509277 187.842865,912.521729 187.854080,756.534180 
	C187.854446,751.562866 187.737015,746.417053 188.904083,741.653870 
	C192.045822,728.831238 200.604141,720.853149 213.378662,718.045410 
	C250.441895,709.899475 287.566345,702.031555 324.674530,694.090698 
	C412.722260,675.248962 500.770203,656.408264 588.826904,637.608582 
	C623.823669,629.136902 658.837280,621.743347 693.856201,614.376221 
	C710.965149,610.776978 725.817993,621.095215 726.567993,638.325500 
	C727.399841,657.436462 726.758301,676.611511 726.758301,696.172180 
	C714.737549,698.779297 702.729736,701.393677 690.717468,703.987305 
	C606.445557,722.182190 522.172791,740.373291 437.900116,758.564758 
	C404.873077,765.694214 371.821991,772.714233 338.826294,779.985657 
	C314.793396,785.281799 303.014160,800.069031 303.018799,824.592102 
	C303.050171,990.912048 303.112610,1157.231934 303.164856,1323.551880 
	C303.165894,1326.876343 303.164978,1330.200806 303.164978,1334.638062 
	C300.765930,1332.940186 298.934906,1331.714478 297.178101,1330.390381 
	C266.979218,1307.630005 237.144455,1284.362915 206.434586,1262.314697 
	C192.860092,1252.568848 185.613388,1241.265869 187.926788,1224.995972 
z"/>

<!-- Gray middle layer -->
<path fill="#6c89a3" opacity="1.000000" stroke="none" 
	d="
M519.402466,850.377808 
	C504.210419,853.662048 489.366119,856.583069 474.645691,860.032654 
	C452.305389,865.267761 440.404266,880.005005 440.244873,902.717957 
	C440.051880,930.212280 440.151550,957.709412 440.247040,985.204895 
	C440.354645,1016.187988 440.770325,1047.170776 440.744965,1078.153442 
	C440.701447,1131.299438 440.333954,1184.445190 440.275635,1237.591187 
	C440.248596,1262.216309 440.533508,1286.843384 440.915039,1311.465820 
	C440.981262,1315.739380 439.884552,1317.331177 435.438019,1318.288086 
	C399.037048,1326.120972 362.715515,1334.322998 326.367981,1342.404419 
	C324.943451,1342.721069 323.499878,1342.952271 321.412109,1343.346680 
	C321.265564,1341.179565 321.046112,1339.443726 321.045319,1337.708008 
	C320.966797,1167.567139 320.973480,997.426208 320.716980,827.285645 
	C320.695496,813.021423 329.924500,800.750549 346.687805,797.138306 
	C423.382416,780.611450 500.084747,764.120544 576.785095,747.620056 
	C657.057068,730.351135 737.321960,713.049377 817.618347,695.894531 
	C823.531555,694.631226 829.853699,693.181580 835.672180,694.012878 
	C847.733337,695.736084 855.686157,705.434204 855.878357,717.687439 
	C856.176147,736.679688 855.878723,755.680542 856.008606,774.676575 
	C856.033020,778.247742 853.933228,778.550354 851.338379,779.104736 
	C799.971924,790.078857 748.611633,801.081360 697.262146,812.134460 
	C638.928101,824.690979 580.606201,837.303650 522.277283,849.883911 
	C521.464722,850.059204 520.630005,850.131165 519.402466,850.377808 
z"/>

<!-- Turquoise triangle - positioned like in original logo -->
<path fill="#209abc" opacity="1.000000" stroke="none" 
	d="
M387.201630,1387.777832 
	C373.732178,1377.498169 360.546143,1367.434082 346.176178,1356.466431 
	C378.461243,1349.367310 409.050842,1342.641113 440.180359,1335.796021 
	C440.180359,1366.976807 440.180359,1397.597046 440.180359,1428.515015 
	C422.454163,1414.884033 404.969604,1401.438721 387.201630,1387.777832 
z
"/>

<!-- ARPAD text - clean and symmetric -->
<text x="1100" y="960" font-family="Arial, sans-serif" font-size="200" font-weight="bold" fill="#02324b" text-anchor="start" letter-spacing="20px">ARPAD</text>

<!-- Horizontal line under ARPAD -->
<rect x="1100" y="1030" width="770" height="10" fill="#209abc" opacity="1.000000"/>

<!-- sp. z o.o. text -->
<text x="1100" y="1150" font-family="Arial, sans-serif" font-size="140" font-weight="normal" fill="#02324b" text-anchor="start" letter-spacing="15px">sp. z o.o.</text>

</svg>