<svg xmlns="http://www.w3.org/2000/svg" xmlns:xlink="http://www.w3.org/1999/xlink" width="2048" zoomAndPan="magnify" viewBox="0 0 1536 1535.999932" height="2048" preserveAspectRatio="xMidYMid meet" version="1.2"><defs><clipPath id="bb9d7f0c14"><path d="M 0 336 L 1536 336 L 1536 1200 L 0 1200 Z M 0 336 "/></clipPath></defs><g id="9dc773429e"><g clip-rule="nonzero" clip-path="url(#bb9d7f0c14)"><path style=" stroke:none;fill-rule:nonzero;fill:#ecf0f4;fill-opacity:1;" d="M 661.5 1536.75 C 441 1536.75 220.875 1536.75 0.75 1536.75 C 0.75 1024.75 0.75 512.75 0.75 0.75 C 512.75 0.75 1024.75 0.75 1536.75 0.75 C 1536.75 512.75 1536.75 1024.75 1536.75 1536.75 C 1245.125 1536.75 953.5 1536.75 661.5 1536.75 M 487.589844 1043.707031 C 541.914062 1031.570312 596.238281 1019.425781 650.566406 1007.308594 C 673.34375 1002.226562 696.132812 997.191406 718.921875 992.148438 C 728.546875 990.019531 735.136719 984.492188 737.589844 974.820312 C 738.4375 971.488281 738.453125 967.886719 738.453125 964.40625 C 738.488281 895.292969 738.460938 826.175781 738.453125 757.0625 C 738.453125 726.820312 738.5 696.582031 738.464844 666.34375 C 738.4375 644.222656 738.410156 622.101562 738.191406 599.984375 C 738.0625 586.722656 728.183594 578.484375 715.261719 581.195312 C 681.425781 588.304688 647.65625 595.730469 613.859375 603.019531 C 558.21875 615.019531 502.574219 627.023438 446.929688 639.007812 C 418.988281 645.027344 391.054688 651.082031 363.082031 656.957031 C 355.761719 658.492188 349.71875 661.898438 346.695312 668.691406 C 344.78125 672.992188 343.734375 678.046875 343.71875 682.769531 C 343.511719 743.132812 343.527344 803.5 343.554688 863.867188 C 343.582031 926.734375 343.6875 989.597656 343.753906 1052.464844 C 343.761719 1059.890625 343.753906 1067.320312 343.753906 1074.914062 C 345.570312 1074.746094 346.453125 1074.753906 347.296875 1074.570312 C 359 1072.003906 370.691406 1069.398438 382.394531 1066.828125 C 417.253906 1059.167969 452.117188 1051.515625 487.589844 1043.707031 M 140.945312 919.121094 C 139.210938 931.699219 144.644531 940.175781 154.824219 947.484375 C 177.859375 964.023438 200.234375 981.472656 222.882812 998.542969 C 224.203125 999.535156 225.574219 1000.453125 227.375 1001.726562 C 227.375 998.402344 227.375 995.90625 227.375 993.414062 C 227.335938 868.675781 227.289062 743.933594 227.265625 619.195312 C 227.261719 600.800781 236.09375 589.710938 254.121094 585.738281 C 278.867188 580.285156 303.65625 575.019531 328.425781 569.671875 C 391.628906 556.03125 454.835938 542.386719 518.039062 528.742188 C 527.046875 526.796875 536.054688 524.835938 545.070312 522.878906 C 545.070312 508.207031 545.550781 493.828125 544.925781 479.492188 C 544.363281 466.570312 533.222656 458.832031 520.390625 461.53125 C 494.128906 467.058594 467.867188 472.601562 441.621094 478.207031 C 375.578125 492.304688 309.542969 506.4375 243.507812 520.566406 C 215.675781 526.523438 187.832031 532.425781 160.035156 538.535156 C 150.453125 540.640625 144.035156 546.625 141.679688 556.242188 C 140.804688 559.8125 140.890625 563.671875 140.890625 567.402344 C 140.882812 684.390625 140.917969 801.382812 140.945312 919.121094 M 389.855469 637.6875 C 390.472656 637.597656 391.097656 637.542969 391.707031 637.414062 C 435.453125 627.976562 479.195312 618.519531 522.945312 609.101562 C 561.457031 600.8125 599.980469 592.558594 638.503906 584.328125 C 640.449219 583.914062 642.023438 583.6875 642.007812 581.007812 C 641.910156 566.761719 642.132812 552.507812 641.910156 538.265625 C 641.765625 529.074219 635.800781 521.800781 626.753906 520.507812 C 622.390625 519.886719 617.648438 520.972656 613.214844 521.921875 C 552.992188 534.785156 492.792969 547.761719 432.589844 560.714844 C 375.0625 573.089844 317.535156 585.457031 260.015625 597.855469 C 247.445312 600.5625 240.523438 609.765625 240.539062 620.464844 C 240.730469 748.070312 240.726562 875.675781 240.785156 1003.28125 C 240.785156 1004.582031 240.949219 1005.882812 241.058594 1007.511719 C 242.625 1007.214844 243.707031 1007.039062 244.777344 1006.804688 C 272.035156 1000.742188 299.277344 994.589844 326.578125 988.714844 C 329.914062 988 330.734375 986.804688 330.6875 983.597656 C 330.398438 965.132812 330.1875 946.664062 330.207031 928.191406 C 330.25 888.332031 330.527344 848.472656 330.558594 808.613281 C 330.578125 785.378906 330.265625 762.140625 330.183594 738.902344 C 330.113281 718.28125 330.039062 697.660156 330.183594 677.039062 C 330.304688 660.003906 339.230469 648.949219 355.984375 645.023438 C 367.023438 642.4375 378.15625 640.246094 389.855469 637.6875 M 998.605469 716.253906 C 1004.054688 724.023438 1010.066406 731.46875 1014.78125 739.660156 C 1018.964844 746.9375 1024.097656 750.023438 1032.457031 748.78125 C 1037.261719 748.070312 1042.257812 748.652344 1047.507812 748.652344 C 1042.507812 741.488281 1037.886719 734.828125 1033.230469 728.191406 C 1028.578125 721.558594 1023.894531 714.945312 1019.101562 708.144531 C 1020.558594 707.5625 1021.816406 707.054688 1023.082031 706.554688 C 1030.058594 703.804688 1035.546875 699.3125 1039.292969 692.757812 C 1052.828125 669.0625 1038.902344 640.445312 1011.773438 638.445312 C 992.164062 637.003906 972.359375 638.164062 952.417969 638.164062 C 952.417969 674.6875 952.417969 711.570312 952.417969 748.347656 C 959.757812 748.347656 966.800781 748.347656 974.207031 748.347656 C 974.207031 736 974.207031 723.933594 974.207031 711.582031 C 979.792969 711.582031 985.027344 711.828125 990.222656 711.5 C 994.015625 711.261719 996.742188 712.21875 998.605469 716.253906 M 1408.695312 710.839844 C 1413.1875 696.128906 1412.589844 681.617188 1405.757812 667.824219 C 1395.398438 646.894531 1377.269531 638.253906 1354.84375 637.605469 C 1340.246094 637.183594 1325.625 637.539062 1311.011719 637.5625 C 1310.308594 637.5625 1309.605469 637.738281 1308.835938 637.839844 C 1308.835938 674.84375 1308.835938 711.640625 1308.835938 748.277344 C 1326.21875 748.277344 1343.53125 749.511719 1360.59375 747.972656 C 1383.59375 745.898438 1400.570312 734.109375 1408.695312 710.839844 M 1177.167969 748.691406 C 1181.164062 748.6875 1185.167969 748.535156 1189.15625 748.738281 C 1191.597656 748.863281 1192.621094 747.894531 1193.433594 745.699219 C 1195.9375 738.914062 1198.804688 732.265625 1201.277344 725.46875 C 1202.078125 723.273438 1203.222656 722.742188 1205.375 722.753906 C 1219.863281 722.820312 1234.355469 722.835938 1248.84375 722.707031 C 1251.125 722.683594 1252.121094 723.460938 1252.914062 725.496094 C 1255.632812 732.460938 1258.492188 739.375 1261.429688 746.253906 C 1261.835938 747.207031 1262.953125 748.515625 1263.769531 748.535156 C 1271.085938 748.710938 1278.40625 748.636719 1286.132812 748.636719 C 1284.128906 744.128906 1282.292969 740.082031 1280.523438 736.003906 C 1266.558594 703.851562 1252.589844 671.703125 1238.6875 639.523438 C 1237.933594 637.777344 1237.121094 637.101562 1235.132812 637.175781 C 1230.144531 637.367188 1225.132812 637.457031 1220.152344 637.167969 C 1217.304688 637.003906 1216.042969 637.996094 1214.960938 640.542969 C 1201.070312 673.253906 1187.058594 705.914062 1173.105469 738.601562 C 1171.71875 741.847656 1170.511719 745.167969 1169.125 748.695312 C 1171.953125 748.695312 1174.195312 748.695312 1177.167969 748.691406 M 916.957031 719.859375 C 905.515625 693.398438 894.039062 666.949219 882.6875 640.449219 C 881.664062 638.058594 880.550781 636.925781 877.808594 637.164062 C 874.457031 637.449219 870.996094 637.679688 867.707031 637.152344 C 861.707031 636.179688 859.03125 638.449219 856.640625 644.132812 C 842.554688 677.597656 827.925781 710.832031 813.484375 744.148438 C 812.90625 745.484375 812.40625 746.859375 811.746094 748.535156 C 819.113281 748.535156 825.972656 748.621094 832.828125 748.4375 C 833.792969 748.410156 835.175781 747.25 835.59375 746.277344 C 838.5625 739.410156 841.46875 732.503906 844.09375 725.496094 C 844.960938 723.183594 846.132812 722.546875 848.4375 722.558594 C 863.058594 722.628906 877.679688 722.632812 892.300781 722.507812 C 894.46875 722.492188 895.363281 723.320312 896.089844 725.171875 C 899.136719 732.941406 902.308594 740.660156 905.382812 748.277344 C 913.226562 748.277344 920.878906 748.277344 928.90625 748.277344 C 924.902344 738.738281 921.046875 729.558594 916.957031 719.859375 M 1161.066406 671.460938 C 1159.023438 652.914062 1146.640625 639.710938 1128.113281 638.386719 C 1112.207031 637.246094 1096.175781 637.8125 1080.199219 637.632812 C 1078.109375 637.609375 1076.019531 637.628906 1073.65625 637.628906 C 1073.65625 674.757812 1073.65625 711.546875 1073.65625 748.519531 C 1080.683594 748.519531 1087.753906 748.519531 1095.238281 748.519531 C 1095.238281 737.4375 1095.238281 726.515625 1095.238281 715.308594 C 1097.347656 715.207031 1099.0625 715.078125 1100.78125 715.046875 C 1107.773438 714.921875 1114.777344 715.078125 1121.753906 714.671875 C 1147.375 713.183594 1162.257812 697 1161.066406 671.460938 M 290.613281 1040.996094 C 303.726562 1051.078125 316.839844 1061.164062 330.136719 1071.386719 C 330.136719 1048.199219 330.136719 1025.234375 330.136719 1001.847656 C 306.789062 1006.980469 283.847656 1012.023438 259.632812 1017.351562 C 270.410156 1025.574219 280.300781 1033.125 290.613281 1040.996094 M 880.523438 903.375 C 880.523438 913.050781 880.523438 922.730469 880.523438 932.289062 C 883.046875 932.289062 885.082031 932.289062 887.1875 932.289062 C 887.1875 928.371094 887.1875 924.75 887.1875 921.128906 C 887.1875 917.601562 887.1875 914.070312 887.1875 910.097656 C 898.015625 919.730469 910.722656 920.511719 919.242188 912.488281 C 928.644531 903.636719 929.964844 888.007812 922.121094 877.980469 C 918.761719 873.691406 914.445312 870.886719 909.019531 869.949219 C 900.378906 868.460938 893.128906 871.046875 886.78125 878.746094 C 886.78125 875.296875 886.78125 873.144531 886.78125 871 C 884.417969 871 882.472656 871 880.519531 871 C 880.519531 881.671875 880.519531 892.148438 880.523438 903.375 M 1260 874.105469 C 1259.152344 873.574219 1258.335938 872.992188 1257.460938 872.523438 C 1244.949219 865.804688 1229.375 870.972656 1223.9375 883.636719 C 1218.199219 896.996094 1224.621094 912.457031 1237.769531 916.9375 C 1248.671875 920.652344 1261.339844 916.085938 1266.789062 906.480469 C 1272.828125 895.839844 1270.167969 882.445312 1260 874.105469 M 1157.304688 910.179688 C 1158.160156 908.949219 1159.105469 907.777344 1159.851562 906.488281 C 1165.964844 895.898438 1163.253906 881.429688 1153.871094 874.382812 C 1144.585938 867.410156 1130.417969 868.207031 1122.554688 876.144531 C 1113.019531 885.773438 1113.019531 902.222656 1122.558594 911.648438 C 1131.703125 920.679688 1147.367188 920.199219 1157.304688 910.179688 M 1025.308594 904.152344 C 1022.820312 908.304688 1016.917969 910.679688 1018.648438 917.152344 C 1031.640625 917.152344 1044.675781 917.152344 1057.570312 917.152344 C 1057.570312 915.089844 1057.570312 913.265625 1057.570312 911.105469 C 1047.460938 911.105469 1037.605469 911.105469 1027.386719 911.105469 C 1036.738281 899.730469 1045.714844 888.703125 1054.84375 877.800781 C 1056.691406 875.59375 1057.496094 873.492188 1056.636719 870.882812 C 1044.378906 870.882812 1032.3125 870.882812 1020.199219 870.882812 C 1020.199219 872.878906 1020.199219 874.652344 1020.199219 876.585938 C 1029.257812 876.585938 1038.042969 876.585938 1047.726562 876.585938 C 1040.0625 886.019531 1032.859375 894.886719 1025.308594 904.152344 M 841.484375 911.183594 C 832.964844 914.238281 825.613281 911.621094 818.695312 906.148438 C 817.40625 907.84375 816.25 909.363281 815.039062 910.949219 C 822.449219 917.027344 830.554688 919.210938 839.515625 917.882812 C 845.308594 917.027344 849.917969 914.261719 851.71875 908.25 C 853.765625 901.421875 850.132812 895.109375 842.667969 892.519531 C 837.835938 890.847656 832.914062 889.441406 828.105469 887.714844 C 825.40625 886.746094 823.832031 884.71875 824.0625 881.660156 C 824.285156 878.679688 826.019531 876.855469 828.730469 875.964844 C 830.011719 875.542969 831.398438 875.332031 832.75 875.242188 C 838.226562 874.886719 842.949219 876.886719 847.332031 880.457031 C 848.542969 878.613281 849.601562 877.003906 850.628906 875.441406 C 844.195312 869.890625 832.949219 867.996094 825.644531 871.027344 C 818.660156 873.921875 815.703125 881.570312 819.046875 888.046875 C 821.054688 891.933594 824.679688 893.542969 828.542969 894.792969 C 832.691406 896.136719 837.035156 897.035156 840.972656 898.824219 C 846.78125 901.460938 847.089844 906.882812 841.484375 911.183594 M 1187.886719 913.679688 C 1187.886719 914.878906 1187.886719 916.082031 1187.886719 917.234375 C 1191.058594 917.234375 1193.867188 917.234375 1196.5625 917.234375 C 1196.5625 913.945312 1196.5625 910.890625 1196.5625 907.714844 C 1193.566406 907.714844 1190.863281 907.714844 1187.890625 907.714844 C 1187.890625 909.566406 1187.890625 911.289062 1187.886719 913.679688 M 951.277344 908.34375 C 951.277344 911.304688 951.277344 914.269531 951.277344 917.441406 C 954.1875 917.441406 956.988281 917.441406 959.867188 917.441406 C 959.867188 914.234375 959.867188 911.175781 959.867188 907.980469 C 957.046875 907.980469 954.441406 907.980469 951.277344 908.34375 M 1302.816406 915.988281 C 1302.816406 913.289062 1302.816406 910.589844 1302.816406 907.777344 C 1299.59375 907.777344 1296.808594 907.777344 1293.945312 907.777344 C 1293.945312 911.035156 1293.945312 914.078125 1293.945312 917.6875 C 1297.035156 917.339844 1299.890625 917.015625 1302.816406 915.988281 Z M 1302.816406 915.988281 "/></g><path style=" stroke:none;fill-rule:nonzero;fill:#209abc;fill-opacity:1;" d="M 487.285156 1043.785156 C 452.117188 1051.515625 417.253906 1059.167969 382.394531 1066.828125 C 370.691406 1069.398438 359 1072.003906 347.296875 1074.570312 C 346.453125 1074.753906 345.570312 1074.746094 343.753906 1074.914062 C 343.753906 1067.320312 343.761719 1059.890625 343.753906 1052.464844 C 343.6875 989.597656 343.582031 926.734375 343.554688 863.867188 C 343.527344 803.5 343.511719 743.132812 343.71875 682.769531 C 343.734375 678.046875 344.78125 672.992188 346.695312 668.691406 C 349.71875 661.898438 355.761719 658.492188 363.082031 656.957031 C 391.054688 651.082031 418.988281 645.027344 446.929688 639.007812 C 502.574219 627.023438 558.21875 615.019531 613.859375 603.019531 C 647.65625 595.730469 681.425781 588.304688 715.261719 581.195312 C 728.183594 578.484375 738.0625 586.722656 738.191406 599.984375 C 738.410156 622.101562 738.4375 644.222656 738.464844 666.34375 C 738.5 696.582031 738.453125 726.820312 738.453125 757.0625 C 738.460938 826.175781 738.488281 895.292969 738.453125 964.40625 C 738.453125 967.886719 738.4375 971.488281 737.589844 974.820312 C 735.136719 984.492188 728.546875 990.019531 718.921875 992.148438 C 696.132812 997.191406 673.34375 1002.226562 650.566406 1007.308594 C 596.238281 1019.425781 541.914062 1031.570312 487.285156 1043.785156 M 605.5625 901.605469 C 605.886719 902.417969 606.214844 903.226562 606.535156 904.042969 C 607.984375 907.757812 608.4375 912.949219 611.15625 914.789062 C 614.019531 916.726562 619.046875 915.542969 623.128906 915.585938 C 629.566406 915.652344 636.003906 915.605469 642.832031 915.605469 C 642.335938 914.183594 642.046875 913.253906 641.691406 912.355469 C 631.515625 886.574219 621.421875 860.761719 611.125 835.03125 C 596.417969 798.289062 581.523438 761.621094 566.835938 724.871094 C 565.597656 721.777344 563.960938 720.769531 560.734375 720.929688 C 555.246094 721.203125 549.738281 721.039062 544.238281 721.027344 C 533.230469 721.007812 533.152344 720.96875 528.980469 731.324219 C 507.523438 784.601562 486.101562 837.890625 464.703125 891.191406 C 461.507812 899.152344 458.492188 907.1875 455.210938 915.65625 C 464.421875 915.65625 473.140625 915.5 481.847656 915.742188 C 484.910156 915.824219 486.136719 914.742188 487.195312 911.988281 C 505.558594 864.332031 524.027344 816.722656 542.492188 769.109375 C 544.433594 764.101562 546.46875 759.128906 548.816406 753.246094 C 559.960938 782.019531 570.753906 809.878906 581.800781 838.402344 C 579.792969 838.402344 578.457031 838.398438 577.125 838.402344 C 565 838.460938 552.875 838.578125 540.753906 838.53125 C 538.359375 838.519531 537.242188 839.25 536.546875 841.613281 C 534.792969 847.597656 532.714844 853.488281 530.773438 859.421875 C 530.253906 861.011719 529.765625 862.613281 529.195312 864.417969 C 549.1875 864.417969 568.679688 864.476562 588.167969 864.351562 C 590.859375 864.335938 592.152344 865.128906 593.0625 867.667969 C 597.058594 878.835938 601.253906 889.933594 605.5625 901.605469 Z M 605.5625 901.605469 "/><path style=" stroke:none;fill-rule:nonzero;fill:#02324b;fill-opacity:1;" d="M 140.945312 918.746094 C 140.917969 801.382812 140.882812 684.390625 140.890625 567.402344 C 140.890625 563.671875 140.804688 559.8125 141.679688 556.242188 C 144.035156 546.625 150.453125 540.640625 160.035156 538.535156 C 187.832031 532.425781 215.675781 526.523438 243.507812 520.566406 C 309.542969 506.4375 375.578125 492.304688 441.621094 478.207031 C 467.867188 472.601562 494.128906 467.058594 520.390625 461.53125 C 533.222656 458.832031 544.363281 466.570312 544.925781 479.492188 C 545.550781 493.828125 545.070312 508.207031 545.070312 522.878906 C 536.054688 524.835938 527.046875 526.796875 518.039062 528.742188 C 454.835938 542.386719 391.628906 556.03125 328.425781 569.671875 C 303.65625 575.019531 278.867188 580.285156 254.121094 585.738281 C 236.09375 589.710938 227.261719 600.800781 227.265625 619.195312 C 227.289062 743.933594 227.335938 868.675781 227.375 993.414062 C 227.375 995.90625 227.375 998.402344 227.375 1001.726562 C 225.574219 1000.453125 224.203125 999.535156 222.882812 998.542969 C 200.234375 981.472656 177.859375 964.023438 154.824219 947.484375 C 144.644531 940.175781 139.210938 931.699219 140.945312 918.746094 Z M 140.945312 918.746094 "/><path style=" stroke:none;fill-rule:nonzero;fill:#6c89a3;fill-opacity:1;" d="M 389.550781 637.785156 C 378.15625 640.246094 367.023438 642.4375 355.984375 645.023438 C 339.230469 648.949219 330.304688 660.003906 330.183594 677.039062 C 330.039062 697.660156 330.113281 718.28125 330.183594 738.902344 C 330.265625 762.140625 330.578125 785.378906 330.558594 808.613281 C 330.527344 848.472656 330.25 888.332031 330.207031 928.191406 C 330.1875 946.664062 330.398438 965.132812 330.6875 983.597656 C 330.734375 986.804688 329.914062 988 326.578125 988.714844 C 299.277344 994.589844 272.035156 1000.742188 244.777344 1006.804688 C 243.707031 1007.039062 242.625 1007.214844 241.058594 1007.511719 C 240.949219 1005.882812 240.785156 1004.582031 240.785156 1003.28125 C 240.726562 875.675781 240.730469 748.070312 240.539062 620.464844 C 240.523438 609.765625 247.445312 600.5625 260.015625 597.855469 C 317.535156 585.457031 375.0625 573.089844 432.589844 560.714844 C 492.792969 547.761719 552.992188 534.785156 613.214844 521.921875 C 617.648438 520.972656 622.390625 519.886719 626.753906 520.507812 C 635.800781 521.800781 641.765625 529.074219 641.910156 538.265625 C 642.132812 552.507812 641.910156 566.761719 642.007812 581.007812 C 642.023438 583.6875 640.449219 583.914062 638.503906 584.328125 C 599.980469 592.558594 561.457031 600.8125 522.945312 609.101562 C 479.195312 618.519531 435.453125 627.976562 391.707031 637.414062 C 391.097656 637.542969 390.472656 637.597656 389.550781 637.785156 Z M 389.550781 637.785156 "/><path style=" stroke:none;fill-rule:nonzero;fill:#02324b;fill-opacity:1;" d="M 998.449219 716.027344 C 996.742188 712.21875 994.015625 711.261719 990.222656 711.5 C 985.027344 711.828125 979.792969 711.582031 974.207031 711.582031 C 974.207031 723.933594 974.207031 736 974.207031 748.347656 C 966.800781 748.347656 959.757812 748.347656 952.417969 748.347656 C 952.417969 711.570312 952.417969 674.6875 952.417969 638.164062 C 972.359375 638.164062 992.164062 637.003906 1011.773438 638.445312 C 1038.902344 640.445312 1052.828125 669.0625 1039.292969 692.757812 C 1035.546875 699.3125 1030.058594 703.804688 1023.082031 706.554688 C 1021.816406 707.054688 1020.558594 707.5625 1019.101562 708.144531 C 1023.894531 714.945312 1028.578125 721.558594 1033.230469 728.191406 C 1037.886719 734.828125 1042.507812 741.488281 1047.507812 748.652344 C 1042.257812 748.652344 1037.261719 748.070312 1032.457031 748.78125 C 1024.097656 750.023438 1018.964844 746.9375 1014.78125 739.660156 C 1010.066406 731.46875 1004.054688 724.023438 998.449219 716.027344 M 985.125 657.550781 C 981.4375 657.550781 977.753906 657.550781 974.125 657.550781 C 974.125 669.398438 974.125 680.59375 974.125 691.429688 C 985.65625 691.429688 997 691.828125 1008.285156 691.179688 C 1011.566406 690.988281 1015.296875 688.398438 1017.726562 685.859375 C 1022.492188 680.882812 1023.371094 674.574219 1020.917969 668.078125 C 1018.371094 661.332031 1012.882812 658.296875 1006.097656 657.847656 C 999.378906 657.398438 992.617188 657.621094 985.125 657.550781 Z M 985.125 657.550781 "/><path style=" stroke:none;fill-rule:nonzero;fill:#02324b;fill-opacity:1;" d="M 1408.617188 711.128906 C 1400.570312 734.109375 1383.59375 745.898438 1360.59375 747.972656 C 1343.53125 749.511719 1326.21875 748.277344 1308.835938 748.277344 C 1308.835938 711.640625 1308.835938 674.84375 1308.835938 637.839844 C 1309.605469 637.738281 1310.308594 637.5625 1311.011719 637.5625 C 1325.625 637.539062 1340.246094 637.183594 1354.84375 637.605469 C 1377.269531 638.253906 1395.398438 646.894531 1405.757812 667.824219 C 1412.589844 681.617188 1413.1875 696.128906 1408.617188 711.128906 M 1330.855469 673.125 C 1330.855469 691.460938 1330.855469 709.800781 1330.855469 728.109375 C 1340.074219 728.109375 1348.972656 728.636719 1357.789062 728 C 1374.878906 726.761719 1386.945312 714.722656 1388.871094 697.847656 C 1390.878906 680.246094 1381.503906 664.816406 1365.363281 659.652344 C 1354.058594 656.039062 1342.40625 658.277344 1330.851562 657.632812 C 1330.851562 662.910156 1330.851562 667.644531 1330.855469 673.125 Z M 1330.855469 673.125 "/><path style=" stroke:none;fill-rule:nonzero;fill:#02324b;fill-opacity:1;" d="M 1176.800781 748.695312 C 1174.195312 748.695312 1171.953125 748.695312 1169.125 748.695312 C 1170.511719 745.167969 1171.71875 741.847656 1173.105469 738.601562 C 1187.058594 705.914062 1201.070312 673.253906 1214.960938 640.542969 C 1216.042969 637.996094 1217.304688 637.003906 1220.152344 637.167969 C 1225.132812 637.457031 1230.144531 637.367188 1235.132812 637.175781 C 1237.121094 637.101562 1237.933594 637.777344 1238.6875 639.523438 C 1252.589844 671.703125 1266.558594 703.851562 1280.523438 736.003906 C 1282.292969 740.082031 1284.128906 744.128906 1286.132812 748.636719 C 1278.40625 748.636719 1271.085938 748.710938 1263.769531 748.535156 C 1262.953125 748.515625 1261.835938 747.207031 1261.429688 746.253906 C 1258.492188 739.375 1255.632812 732.460938 1252.914062 725.496094 C 1252.121094 723.460938 1251.125 722.683594 1248.84375 722.707031 C 1234.355469 722.835938 1219.863281 722.820312 1205.375 722.753906 C 1203.222656 722.742188 1202.078125 723.273438 1201.277344 725.46875 C 1198.804688 732.265625 1195.9375 738.914062 1193.433594 745.699219 C 1192.621094 747.894531 1191.597656 748.863281 1189.15625 748.738281 C 1185.167969 748.535156 1181.164062 748.6875 1176.800781 748.695312 M 1228.582031 667.058594 C 1228.105469 665.96875 1227.628906 664.878906 1226.875 663.164062 C 1221.101562 676.675781 1215.605469 689.542969 1209.960938 702.742188 C 1221.15625 702.742188 1231.835938 702.742188 1242.933594 702.742188 C 1238.164062 690.875 1233.480469 679.230469 1228.582031 667.058594 Z M 1228.582031 667.058594 "/><path style=" stroke:none;fill-rule:nonzero;fill:#02324b;fill-opacity:1;" d="M 917.074219 720.121094 C 921.046875 729.558594 924.902344 738.738281 928.90625 748.277344 C 920.878906 748.277344 913.226562 748.277344 905.382812 748.277344 C 902.308594 740.660156 899.136719 732.941406 896.089844 725.171875 C 895.363281 723.320312 894.46875 722.492188 892.300781 722.507812 C 877.679688 722.632812 863.058594 722.628906 848.4375 722.558594 C 846.132812 722.546875 844.960938 723.183594 844.09375 725.496094 C 841.46875 732.503906 838.5625 739.410156 835.59375 746.277344 C 835.175781 747.25 833.792969 748.410156 832.828125 748.4375 C 825.972656 748.621094 819.113281 748.535156 811.746094 748.535156 C 812.40625 746.859375 812.90625 745.484375 813.484375 744.148438 C 827.925781 710.832031 842.554688 677.597656 856.640625 644.132812 C 859.03125 638.449219 861.707031 636.179688 867.707031 637.152344 C 870.996094 637.679688 874.457031 637.449219 877.808594 637.164062 C 880.550781 636.925781 881.664062 638.058594 882.6875 640.449219 C 894.039062 666.949219 905.515625 693.398438 917.074219 720.121094 M 880.554688 688.046875 C 877.199219 679.957031 873.84375 671.871094 870.203125 663.101562 C 864.363281 676.621094 858.816406 689.464844 853.117188 702.667969 C 864.398438 702.667969 875.167969 702.667969 886.375 702.667969 C 884.429688 697.78125 882.59375 693.183594 880.554688 688.046875 Z M 880.554688 688.046875 "/><path style=" stroke:none;fill-rule:nonzero;fill:#02324b;fill-opacity:1;" d="M 1161.089844 671.785156 C 1162.257812 697 1147.375 713.183594 1121.753906 714.671875 C 1114.777344 715.078125 1107.773438 714.921875 1100.78125 715.046875 C 1099.0625 715.078125 1097.347656 715.207031 1095.238281 715.308594 C 1095.238281 726.515625 1095.238281 737.4375 1095.238281 748.519531 C 1087.753906 748.519531 1080.683594 748.519531 1073.65625 748.519531 C 1073.65625 711.546875 1073.65625 674.757812 1073.65625 637.628906 C 1076.019531 637.628906 1078.109375 637.609375 1080.199219 637.632812 C 1096.175781 637.8125 1112.207031 637.246094 1128.113281 638.386719 C 1146.640625 639.710938 1159.023438 652.914062 1161.089844 671.785156 M 1095.253906 661.265625 C 1095.253906 672.570312 1095.253906 683.875 1095.253906 695.347656 C 1102.632812 695.347656 1109.5 695.355469 1116.367188 695.339844 C 1117.867188 695.339844 1119.367188 695.324219 1120.863281 695.210938 C 1129.910156 694.527344 1136.34375 689.65625 1138.445312 681.9375 C 1141.914062 669.191406 1134.148438 658.289062 1120.925781 657.742188 C 1113.191406 657.425781 1105.429688 657.738281 1097.6875 657.578125 C 1095.242188 657.527344 1095.03125 658.71875 1095.253906 661.265625 Z M 1095.253906 661.265625 "/><path style=" stroke:none;fill-rule:nonzero;fill:#209abc;fill-opacity:1;" d="M 810.75 802.5 L 1415.25 802.5 L 1415.25 810.75 L 810.75 810.75 Z M 810.75 802.5 "/><path style=" stroke:none;fill-rule:nonzero;fill:#209abc;fill-opacity:1;" d="M 290.402344 1040.832031 C 280.300781 1033.125 270.410156 1025.574219 259.632812 1017.351562 C 283.847656 1012.023438 306.789062 1006.980469 330.136719 1001.847656 C 330.136719 1025.234375 330.136719 1048.199219 330.136719 1071.386719 C 316.839844 1061.164062 303.726562 1051.078125 290.402344 1040.832031 Z M 290.402344 1040.832031 "/><path style=" stroke:none;fill-rule:nonzero;fill:#02324b;fill-opacity:1;" d="M 880.523438 903 C 880.519531 892.148438 880.519531 881.671875 880.519531 871 C 882.472656 871 884.417969 871 886.78125 871 C 886.78125 873.144531 886.78125 875.296875 886.78125 878.746094 C 893.128906 871.046875 900.378906 868.460938 909.019531 869.949219 C 914.445312 870.886719 918.761719 873.691406 922.121094 877.980469 C 929.964844 888.007812 928.644531 903.636719 919.242188 912.488281 C 910.722656 920.511719 898.015625 919.730469 887.1875 910.097656 C 887.1875 914.070312 887.1875 917.601562 887.1875 921.128906 C 887.1875 924.75 887.1875 928.371094 887.1875 932.289062 C 885.082031 932.289062 883.046875 932.289062 880.523438 932.289062 C 880.523438 922.730469 880.523438 913.050781 880.523438 903 M 889.03125 884.339844 C 888.277344 887.59375 886.972656 890.832031 886.875 894.109375 C 886.582031 903.550781 893.40625 911.484375 901.886719 912.171875 C 911.226562 912.933594 918.46875 907.101562 920.042969 897.550781 C 921.574219 888.253906 917.246094 879.457031 909.609375 876.359375 C 902.164062 873.335938 894.40625 876.203125 889.03125 884.339844 Z M 889.03125 884.339844 "/><path style=" stroke:none;fill-rule:nonzero;fill:#02324b;fill-opacity:1;" d="M 1260.214844 874.269531 C 1270.167969 882.445312 1272.828125 895.839844 1266.789062 906.480469 C 1261.339844 916.085938 1248.671875 920.652344 1237.769531 916.9375 C 1224.621094 912.457031 1218.199219 896.996094 1223.9375 883.636719 C 1229.375 870.972656 1244.949219 865.804688 1257.460938 872.523438 C 1258.335938 872.992188 1259.152344 873.574219 1260.214844 874.269531 M 1242.402344 875.8125 C 1233.398438 878.304688 1228.503906 885.222656 1228.933594 894.847656 C 1229.347656 904.035156 1234.601562 910.683594 1242.730469 912.054688 C 1249.820312 913.253906 1255.664062 910.839844 1259.6875 904.96875 C 1264.265625 898.285156 1264.410156 891.003906 1260.398438 884.078125 C 1256.621094 877.558594 1250.648438 874.640625 1242.402344 875.8125 Z M 1242.402344 875.8125 "/><path style=" stroke:none;fill-rule:nonzero;fill:#02324b;fill-opacity:1;" d="M 1157.136719 910.386719 C 1147.367188 920.199219 1131.703125 920.679688 1122.558594 911.648438 C 1113.019531 902.222656 1113.019531 885.773438 1122.554688 876.144531 C 1130.417969 868.207031 1144.585938 867.410156 1153.871094 874.382812 C 1163.253906 881.429688 1165.964844 895.898438 1159.851562 906.488281 C 1159.105469 907.777344 1158.160156 908.949219 1157.136719 910.386719 M 1122.394531 891.550781 C 1122.03125 898.195312 1123.246094 904.261719 1128.804688 908.664062 C 1134.988281 913.5625 1142.9375 913.667969 1149.246094 909.003906 C 1155.9375 904.058594 1158.433594 894.507812 1155.144531 886.4375 C 1152.140625 879.0625 1144.898438 874.5625 1137.394531 875.40625 C 1129.683594 876.269531 1123.765625 882.410156 1122.394531 891.550781 Z M 1122.394531 891.550781 "/><path style=" stroke:none;fill-rule:nonzero;fill:#02324b;fill-opacity:1;" d="M 1025.484375 903.953125 C 1032.859375 894.886719 1040.0625 886.019531 1047.726562 876.585938 C 1038.042969 876.585938 1029.257812 876.585938 1020.199219 876.585938 C 1020.199219 874.652344 1020.199219 872.878906 1020.199219 870.882812 C 1032.3125 870.882812 1044.378906 870.882812 1056.636719 870.882812 C 1057.496094 873.492188 1056.691406 875.59375 1054.84375 877.800781 C 1045.714844 888.703125 1036.738281 899.730469 1027.386719 911.105469 C 1037.605469 911.105469 1047.460938 911.105469 1057.570312 911.105469 C 1057.570312 913.265625 1057.570312 915.089844 1057.570312 917.152344 C 1044.675781 917.152344 1031.640625 917.152344 1018.648438 917.152344 C 1016.917969 910.679688 1022.820312 908.304688 1025.484375 903.953125 Z M 1025.484375 903.953125 "/><path style=" stroke:none;fill-rule:nonzero;fill:#02324b;fill-opacity:1;" d="M 841.757812 911.046875 C 847.089844 906.882812 846.78125 901.460938 840.972656 898.824219 C 837.035156 897.035156 832.691406 896.136719 828.542969 894.792969 C 824.679688 893.542969 821.054688 891.933594 819.046875 888.046875 C 815.703125 881.570312 818.660156 873.921875 825.644531 871.027344 C 832.949219 867.996094 844.195312 869.890625 850.628906 875.441406 C 849.601562 877.003906 848.542969 878.613281 847.332031 880.457031 C 842.949219 876.886719 838.226562 874.886719 832.75 875.242188 C 831.398438 875.332031 830.011719 875.542969 828.730469 875.964844 C 826.019531 876.855469 824.285156 878.679688 824.0625 881.660156 C 823.832031 884.71875 825.40625 886.746094 828.105469 887.714844 C 832.914062 889.441406 837.835938 890.847656 842.667969 892.519531 C 850.132812 895.109375 853.765625 901.421875 851.71875 908.25 C 849.917969 914.261719 845.308594 917.027344 839.515625 917.882812 C 830.554688 919.210938 822.449219 917.027344 815.039062 910.949219 C 816.25 909.363281 817.40625 907.84375 818.695312 906.148438 C 825.613281 911.621094 832.964844 914.238281 841.757812 911.046875 Z M 841.757812 911.046875 "/><path style=" stroke:none;fill-rule:nonzero;fill:#02324b;fill-opacity:1;" d="M 1187.890625 913.347656 C 1187.890625 911.289062 1187.890625 909.566406 1187.890625 907.714844 C 1190.863281 907.714844 1193.566406 907.714844 1196.5625 907.714844 C 1196.5625 910.890625 1196.5625 913.945312 1196.5625 917.234375 C 1193.867188 917.234375 1191.058594 917.234375 1187.886719 917.234375 C 1187.886719 916.082031 1187.886719 914.878906 1187.890625 913.347656 Z M 1187.890625 913.347656 "/><path style=" stroke:none;fill-rule:nonzero;fill:#02324b;fill-opacity:1;" d="M 951.554688 908.164062 C 954.441406 907.980469 957.046875 907.980469 959.867188 907.980469 C 959.867188 911.175781 959.867188 914.234375 959.867188 917.441406 C 956.988281 917.441406 954.1875 917.441406 951.277344 917.441406 C 951.277344 914.269531 951.277344 911.304688 951.554688 908.164062 Z M 951.554688 908.164062 "/><path style=" stroke:none;fill-rule:nonzero;fill:#02324b;fill-opacity:1;" d="M 1302.78125 916.339844 C 1299.890625 917.015625 1297.035156 917.339844 1293.945312 917.6875 C 1293.945312 914.078125 1293.945312 911.035156 1293.945312 907.777344 C 1296.808594 907.777344 1299.59375 907.777344 1302.816406 907.777344 C 1302.816406 910.589844 1302.816406 913.289062 1302.78125 916.339844 Z M 1302.78125 916.339844 "/><path style=" stroke:none;fill-rule:nonzero;fill:#ecf0f4;fill-opacity:1;" d="M 605.46875 901.328125 C 601.253906 889.933594 597.058594 878.835938 593.0625 867.667969 C 592.152344 865.128906 590.859375 864.335938 588.167969 864.351562 C 568.679688 864.476562 549.1875 864.417969 529.195312 864.417969 C 529.765625 862.613281 530.253906 861.011719 530.773438 859.421875 C 532.714844 853.488281 534.792969 847.597656 536.546875 841.613281 C 537.242188 839.25 538.359375 838.519531 540.753906 838.53125 C 552.875 838.578125 565 838.460938 577.125 838.402344 C 578.457031 838.398438 579.792969 838.402344 581.800781 838.402344 C 570.753906 809.878906 559.960938 782.019531 548.816406 753.246094 C 546.46875 759.128906 544.433594 764.101562 542.492188 769.109375 C 524.027344 816.722656 505.558594 864.332031 487.195312 911.988281 C 486.136719 914.742188 484.910156 915.824219 481.847656 915.742188 C 473.140625 915.5 464.421875 915.65625 455.210938 915.65625 C 458.492188 907.1875 461.507812 899.152344 464.703125 891.191406 C 486.101562 837.890625 507.523438 784.601562 528.980469 731.324219 C 533.152344 720.96875 533.230469 721.007812 544.238281 721.027344 C 549.738281 721.039062 555.246094 721.203125 560.734375 720.929688 C 563.960938 720.769531 565.597656 721.777344 566.835938 724.871094 C 581.523438 761.621094 596.417969 798.289062 611.125 835.03125 C 621.421875 860.761719 631.515625 886.574219 641.691406 912.355469 C 642.046875 913.253906 642.335938 914.183594 642.832031 915.605469 C 636.003906 915.605469 629.566406 915.652344 623.128906 915.585938 C 619.046875 915.542969 614.019531 916.726562 611.15625 914.789062 C 608.4375 912.949219 607.984375 907.757812 606.535156 904.042969 C 606.214844 903.226562 605.886719 902.417969 605.46875 901.328125 Z M 605.46875 901.328125 "/><path style=" stroke:none;fill-rule:nonzero;fill:#ecf0f4;fill-opacity:1;" d="M 985.5 657.550781 C 992.617188 657.621094 999.378906 657.398438 1006.097656 657.847656 C 1012.882812 658.296875 1018.371094 661.332031 1020.917969 668.078125 C 1023.371094 674.574219 1022.492188 680.882812 1017.726562 685.859375 C 1015.296875 688.398438 1011.566406 690.988281 1008.285156 691.179688 C 997 691.828125 985.65625 691.429688 974.125 691.429688 C 974.125 680.59375 974.125 669.398438 974.125 657.550781 C 977.753906 657.550781 981.4375 657.550781 985.5 657.550781 Z M 985.5 657.550781 "/><path style=" stroke:none;fill-rule:nonzero;fill:#ecf0f4;fill-opacity:1;" d="M 1330.851562 672.75 C 1330.851562 667.644531 1330.851562 662.910156 1330.851562 657.632812 C 1342.40625 658.277344 1354.058594 656.039062 1365.363281 659.652344 C 1381.503906 664.816406 1390.878906 680.246094 1388.871094 697.847656 C 1386.945312 714.722656 1374.878906 726.761719 1357.789062 728 C 1348.972656 728.636719 1340.074219 728.109375 1330.855469 728.109375 C 1330.855469 709.800781 1330.855469 691.460938 1330.851562 672.75 Z M 1330.851562 672.75 "/><path style=" stroke:none;fill-rule:nonzero;fill:#ecf0f4;fill-opacity:1;" d="M 1228.691406 667.320312 C 1233.480469 679.230469 1238.164062 690.875 1242.933594 702.742188 C 1231.835938 702.742188 1221.15625 702.742188 1209.960938 702.742188 C 1215.605469 689.542969 1221.101562 676.675781 1226.875 663.164062 C 1227.628906 664.878906 1228.105469 665.96875 1228.691406 667.320312 Z M 1228.691406 667.320312 "/><path style=" stroke:none;fill-rule:nonzero;fill:#ecf0f4;fill-opacity:1;" d="M 880.660156 688.316406 C 882.59375 693.183594 884.429688 697.78125 886.375 702.667969 C 875.167969 702.667969 864.398438 702.667969 853.117188 702.667969 C 858.816406 689.464844 864.363281 676.621094 870.203125 663.101562 C 873.84375 671.871094 877.199219 679.957031 880.660156 688.316406 Z M 880.660156 688.316406 "/><path style=" stroke:none;fill-rule:nonzero;fill:#ecf0f4;fill-opacity:1;" d="M 1095.253906 660.910156 C 1095.03125 658.71875 1095.242188 657.527344 1097.6875 657.578125 C 1105.429688 657.738281 1113.191406 657.425781 1120.925781 657.742188 C 1134.148438 658.289062 1141.914062 669.191406 1138.445312 681.9375 C 1136.34375 689.65625 1129.910156 694.527344 1120.863281 695.210938 C 1119.367188 695.324219 1117.867188 695.339844 1116.367188 695.339844 C 1109.5 695.355469 1102.632812 695.347656 1095.253906 695.347656 C 1095.253906 683.875 1095.253906 672.570312 1095.253906 660.910156 Z M 1095.253906 660.910156 "/><path style=" stroke:none;fill-rule:nonzero;fill:#ecf0f4;fill-opacity:1;" d="M 889.183594 884.101562 C 894.40625 876.203125 902.164062 873.335938 909.609375 876.359375 C 917.246094 879.457031 921.574219 888.253906 920.042969 897.550781 C 918.46875 907.101562 911.226562 912.933594 901.886719 912.171875 C 893.40625 911.484375 886.582031 903.550781 886.875 894.109375 C 886.972656 890.832031 888.277344 887.59375 889.183594 884.101562 Z M 889.183594 884.101562 "/><path style=" stroke:none;fill-rule:nonzero;fill:#ecf0f4;fill-opacity:1;" d="M 1242.699219 875.742188 C 1250.648438 874.640625 1256.621094 877.558594 1260.398438 884.078125 C 1264.410156 891.003906 1264.265625 898.285156 1259.6875 904.96875 C 1255.664062 910.839844 1249.820312 913.253906 1242.730469 912.054688 C 1234.601562 910.683594 1229.347656 904.035156 1228.933594 894.847656 C 1228.503906 885.222656 1233.398438 878.304688 1242.699219 875.742188 Z M 1242.699219 875.742188 "/><path style=" stroke:none;fill-rule:nonzero;fill:#ecf0f4;fill-opacity:1;" d="M 1122.441406 891.210938 C 1123.765625 882.410156 1129.683594 876.269531 1137.394531 875.40625 C 1144.898438 874.5625 1152.140625 879.0625 1155.144531 886.4375 C 1158.433594 894.507812 1155.9375 904.058594 1149.246094 909.003906 C 1142.9375 913.667969 1134.988281 913.5625 1128.804688 908.664062 C 1123.246094 904.261719 1122.03125 898.195312 1122.441406 891.210938 Z M 1122.441406 891.210938 "/></g></svg>